<svg width="18" height="18" viewBox="0 0 18 18" fill="none" xmlns="http://www.w3.org/2000/svg">
<path d="M16.7087 8.99999H6.41283M2.77866 8.99999H1.29199M2.77866 8.99999C2.77866 8.51818 2.97006 8.0561 3.31075 7.71541C3.65144 7.37472 4.11352 7.18332 4.59533 7.18332C5.07714 7.18332 5.53921 7.37472 5.8799 7.71541C6.22059 8.0561 6.41199 8.51818 6.41199 8.99999C6.41199 9.4818 6.22059 9.94388 5.8799 10.2846C5.53921 10.6253 5.07714 10.8167 4.59533 10.8167C4.11352 10.8167 3.65144 10.6253 3.31075 10.2846C2.97006 9.94388 2.77866 9.4818 2.77866 8.99999ZM16.7087 14.5058H11.9187M11.9187 14.5058C11.9187 14.9877 11.7268 15.4503 11.386 15.7911C11.0453 16.1319 10.5831 16.3233 10.1012 16.3233C9.61935 16.3233 9.15727 16.1311 8.81658 15.7904C8.47589 15.4497 8.28449 14.9876 8.28449 14.5058M11.9187 14.5058C11.9187 14.0239 11.7268 13.5621 11.386 13.2214C11.0453 12.8806 10.5831 12.6892 10.1012 12.6892C9.61935 12.6892 9.15727 12.8806 8.81658 13.2212C8.47589 13.5619 8.28449 14.024 8.28449 14.5058M8.28449 14.5058H1.29199M16.7087 3.49416H14.1212M10.487 3.49416H1.29199M10.487 3.49416C10.487 3.01235 10.6784 2.55027 11.0191 2.20958C11.3598 1.86889 11.8218 1.67749 12.3037 1.67749C12.5422 1.67749 12.7785 1.72448 12.9989 1.81578C13.2193 1.90707 13.4195 2.04089 13.5882 2.20958C13.7569 2.37827 13.8907 2.57854 13.982 2.79895C14.0733 3.01936 14.1203 3.25559 14.1203 3.49416C14.1203 3.73272 14.0733 3.96896 13.982 4.18937C13.8907 4.40977 13.7569 4.61004 13.5882 4.77873C13.4195 4.94743 13.2193 5.08124 12.9989 5.17254C12.7785 5.26383 12.5422 5.31082 12.3037 5.31082C11.8218 5.31082 11.3598 5.11943 11.0191 4.77873C10.6784 4.43804 10.487 3.97597 10.487 3.49416Z" stroke="#979797" strokeWidth="1.5" stroke-miterlimit="10" strokeLinecap="round"/>
</svg>
