<svg width="45" height="41" viewBox="0 0 45 41" fill="none" xmlns="http://www.w3.org/2000/svg">
<path fill-rule="evenodd" clip-rule="evenodd" d="M0.422583 0.142923C0.148946 0.267967 0.0125833 0.488666 0.0142262 0.804654C0.0156866 1.06533 0.0116698 8.05577 0.00546322 16.3388C-0.000743371 24.6219 -0.00183874 31.5809 0.00309002 31.8033C0.0204319 32.5959 0.461648 32.6508 7.0399 32.6793C15.3903 32.7153 18.6661 32.5287 20.456 31.9153C21.2084 31.6574 22.0204 31.2921 22.2605 31.1032C22.5005 30.9144 22.809 30.76 22.9461 30.76C23.0832 30.76 23.1953 30.6833 23.1953 30.5897C23.1953 30.496 23.3745 30.3626 23.5936 30.2931C24.0644 30.1437 26.4811 27.6843 26.4811 27.3546C26.4811 27.2296 26.5846 27.0616 26.7111 26.9813C26.8376 26.901 27.1045 26.5067 27.3044 26.1051C27.5041 25.7035 27.7137 25.3338 27.7699 25.2836C27.9824 25.0938 28.6717 22.7701 28.6717 22.2435C28.6717 21.941 28.7301 21.6351 28.8016 21.5635C28.9782 21.387 28.9877 18.7119 28.8117 18.7119C28.7347 18.7119 28.6704 18.3627 28.6689 17.9361C28.6675 17.5095 28.5413 16.7906 28.3887 16.3388C28.2359 15.887 28.0833 15.4352 28.0496 15.3348C28.0156 15.2344 27.9915 15.1112 27.9959 15.061C28.0001 15.0108 27.7843 14.6222 27.5162 14.1976C27.2482 13.7728 27.0288 13.339 27.0288 13.2333C27.0288 13.1278 26.9055 12.9942 26.7549 12.9365C26.6043 12.8787 26.4811 12.7553 26.4811 12.6622C26.4811 12.4046 24.2551 10.1322 24.0029 10.1322C23.8813 10.1322 23.7347 10.009 23.6768 9.85842C23.6191 9.70782 23.4461 9.5846 23.2922 9.5846C23.1385 9.5846 23.0127 9.5041 23.0127 9.40552C23.0127 9.30713 22.8074 9.17496 22.5564 9.11199C22.3054 9.04901 22.1 8.9278 22.1 8.84291C22.1 8.75785 21.8132 8.63463 21.4627 8.56891C21.1122 8.50301 20.8718 8.37413 20.9286 8.28231C20.9854 8.19031 20.9642 8.13098 20.8813 8.15051C20.6057 8.21495 19.2756 7.92452 18.9054 7.71897C18.3749 7.42434 8.60523 7.2763 8.08443 7.55486C7.69305 7.76424 7.69287 7.77045 7.68246 15.9993C7.67169 24.5498 7.68776 24.736 8.43127 24.736C8.61984 24.736 8.77409 24.7975 8.77409 24.8729C8.77409 24.9483 9.59555 25.0098 10.5996 25.0098C11.6036 25.0098 12.425 24.9483 12.425 24.8729C12.425 24.7975 12.5433 24.736 12.6881 24.736C12.8328 24.736 13.0008 24.6555 13.0616 24.5573C13.1224 24.4589 13.1669 21.8815 13.1607 18.8295C13.1545 15.7777 13.2005 13.1474 13.2631 12.9843C13.3588 12.735 13.705 12.6879 15.4458 12.6879C16.5838 12.6879 17.5597 12.7605 17.6146 12.8494C17.6694 12.9382 18.0783 13.0654 18.5232 13.1322C18.968 13.1988 19.4308 13.3726 19.5518 13.5183C19.6727 13.664 19.8731 13.7832 19.9974 13.7832C20.3287 13.7832 21.9174 15.2308 21.9174 15.5329C21.9174 15.6749 22.0014 15.7912 22.1038 15.7912C22.2064 15.7912 22.3897 16.0172 22.5109 16.2932C22.6323 16.5692 22.7816 16.8363 22.843 16.8865C22.9043 16.9367 23.0909 17.3826 23.2575 17.8773C23.5633 18.7855 23.6891 21.6325 23.4235 21.6329C23.3481 21.6329 23.275 21.8315 23.2612 22.0743C23.23 22.6166 22.5799 23.9379 22.0416 24.5534C21.487 25.1876 20.0038 26.3789 19.7689 26.3789C19.6621 26.3789 19.5447 26.4691 19.508 26.5793C19.4711 26.6896 19.0516 26.8238 18.5758 26.8774C18.0999 26.9311 17.6665 27.0463 17.6126 27.1334C17.5588 27.2204 14.8587 27.2916 11.6123 27.2916C6.48386 27.2916 5.69581 27.2549 5.60271 27.0125C5.54375 26.859 5.48205 21.9507 5.46543 16.1053L5.43531 5.4773L12.0791 5.49355C15.7331 5.50249 18.9282 5.55123 19.1792 5.60198C19.9215 5.75203 20.7178 5.97638 20.9134 6.09066C21.0138 6.14925 21.1938 6.21205 21.3132 6.23031C21.8831 6.31683 22.8302 6.7104 22.8302 6.86064C22.8302 6.95319 22.9813 7.02895 23.1659 7.02895C23.5202 7.02895 24.3283 7.58553 25.6136 8.71495C26.0406 9.09008 26.4926 9.39804 26.618 9.3995C26.7436 9.40096 26.8462 9.51049 26.8462 9.64302C26.8462 9.77536 27.0479 10.0592 27.2945 10.2737C27.5412 10.4882 27.9628 10.9959 28.2316 11.4019C28.5003 11.808 28.7914 12.1403 28.8785 12.1403C28.9656 12.1403 29.0368 12.2531 29.0368 12.3909C29.0368 12.724 29.7339 14.2888 29.9387 14.4155C30.0276 14.4703 30.1558 14.8434 30.2235 15.2445C30.2912 15.6455 30.4055 15.9737 30.4774 15.9737C30.5495 15.9737 30.6286 16.3169 30.6534 16.7364C30.678 17.1559 30.7379 17.5632 30.7863 17.6413C30.9482 17.9036 30.875 22.0792 30.6937 22.9105C30.3369 24.5481 30.0579 25.5593 29.9382 25.6487C29.8712 25.6989 29.7529 25.9453 29.6757 26.1963C29.5985 26.4473 29.4847 26.6938 29.4229 26.744C29.3611 26.7942 29.1069 27.2254 28.8581 27.7024C28.6091 28.1793 28.3477 28.5695 28.277 28.5695C28.2064 28.5695 28.0957 28.7361 28.0311 28.9398C27.8097 29.6372 24.8672 32.2204 24.2942 32.2204C24.2018 32.2204 24.0605 32.3232 23.9802 32.4486C23.8066 32.7198 22.2057 33.4982 21.8212 33.4982C21.6734 33.4982 21.5524 33.5634 21.5524 33.6432C21.5524 33.7229 21.0801 33.9458 20.5027 34.1386C19.5872 34.4443 18.7884 34.4971 14.2505 34.5506C9.04317 34.6123 7.92306 34.7454 8.12733 35.2779C8.17552 35.4034 8.09429 35.5062 7.94697 35.5062C7.72755 35.5062 7.67881 35.8668 7.67881 37.4859C7.67881 39.1858 7.727 39.5091 8.01926 39.7736C8.66109 40.3547 21.259 39.931 21.7349 39.3123C21.7851 39.2472 22.1513 39.1422 22.5487 39.079C22.9461 39.016 23.3158 38.8965 23.3702 38.8134C23.4246 38.7302 23.7772 38.6055 24.1536 38.5363C24.5302 38.4671 24.8382 38.332 24.8382 38.2362C24.8382 38.1404 24.9514 38.0619 25.0897 38.0619C25.2279 38.0619 25.439 37.9439 25.5587 37.7997C25.6783 37.6557 26.0169 37.4848 26.3112 37.4202C26.6054 37.3556 26.8462 37.2245 26.8462 37.1289C26.8462 37.0334 26.9901 36.9007 27.1657 36.8342C27.3413 36.7676 27.5788 36.6265 27.693 36.5205C27.8075 36.4144 28.1361 36.1672 28.4232 35.971C29.1131 35.5 32.3226 32.2574 32.3226 32.0316C32.3226 31.9347 32.4048 31.8553 32.5052 31.8553C32.6056 31.8553 32.6879 31.7527 32.6879 31.6271C32.6881 31.5017 32.8911 31.1629 33.1391 30.8746C33.387 30.5862 33.6389 30.1959 33.6988 30.0076C33.7587 29.819 33.8841 29.6647 33.9778 29.6647C34.0714 29.6647 34.1481 29.5337 34.1481 29.3734C34.1481 29.2133 34.2669 28.8641 34.412 28.5976C34.9819 27.551 35.5327 26.0472 35.4524 25.7568C35.4272 25.6655 35.4772 25.5423 35.5634 25.483C35.6495 25.4234 35.8359 24.8409 35.9775 24.1883C36.2788 22.8017 36.4166 16.8865 36.1477 16.8865C36.0518 16.8865 35.9905 16.8249 36.0113 16.7496C36.1077 16.3996 35.7642 14.5037 35.5194 14.0344C35.3688 13.7456 35.2452 13.4055 35.2444 13.2786C35.2439 13.1517 35.1676 12.9053 35.0749 12.731C34.9823 12.5566 34.6236 11.8391 34.2777 11.1362C33.5391 9.63498 32.998 8.61747 32.8702 8.4895C32.82 8.43912 32.3308 7.8641 31.7832 7.21149C30.7396 5.9678 30.0269 5.25971 29.1516 4.59651C28.8633 4.37819 28.4961 4.05581 28.3352 3.88002C28.1744 3.70422 27.9448 3.56056 27.8248 3.56056C27.7049 3.56056 27.5795 3.49576 27.5459 3.41653C27.4596 3.21208 25.727 2.17467 25.1932 2.008C24.9477 1.93115 24.5848 1.75627 24.3868 1.61918C24.1889 1.48209 23.8807 1.37 23.7022 1.37C23.5239 1.37 23.3778 1.29516 23.3778 1.20352C23.3778 1.11188 23.0286 0.983003 22.602 0.916922C22.1754 0.85084 21.558 0.713748 21.2303 0.612069C19.8775 0.192394 17.3865 0.0671665 9.32173 0.0127676C3.77852 -0.0246545 0.690744 0.0206166 0.422583 0.142923ZM38.803 29.2996C38.7409 29.4 38.3925 29.4822 38.0285 29.4822C36.7393 29.4822 35.1435 30.5572 34.4736 31.8768C33.7311 33.3392 33.293 35.6888 33.7627 35.6888C33.8518 35.6888 33.9788 35.9763 34.0447 36.3277C34.1106 36.6791 34.2341 36.9666 34.3191 36.9666C34.404 36.9666 34.5278 37.1825 34.594 37.4463C34.8271 38.3753 36.586 39.7048 37.5816 39.7048C37.8901 39.7048 38.1933 39.7869 38.2554 39.8873C38.3936 40.111 39.6245 40.1323 39.6245 39.9111C39.6245 39.8238 40.0044 39.7095 40.4686 39.6572C40.9328 39.6048 41.364 39.4819 41.4269 39.3842C41.4897 39.2864 41.7261 39.1488 41.9519 39.0781C42.1778 39.0076 42.3627 38.8735 42.3627 38.7798C42.3627 38.6862 42.4859 38.6095 42.6365 38.6095C42.7871 38.6095 42.9103 38.4963 42.9103 38.358C42.9103 38.2198 43.0282 38.0088 43.1723 37.8892C43.7719 37.3916 44.2188 36.1709 44.2414 34.969C44.2823 32.783 44.1084 32.2423 42.9893 31.0778C42.4355 30.5013 41.8694 30.0298 41.7314 30.0298C41.5932 30.0298 41.4496 29.9373 41.4118 29.8241C41.374 29.7109 40.9138 29.5771 40.3888 29.5267C39.8638 29.4763 39.3901 29.3635 39.336 29.2761C39.2044 29.0632 38.9419 29.0747 38.803 29.2996Z" fill="white"/>
</svg>
