<svg width="45" height="42" viewBox="0 0 45 42" fill="none" xmlns="http://www.w3.org/2000/svg">
<path fill-rule="evenodd" clip-rule="evenodd" d="M0.422583 1.10972C0.148946 1.23476 0.0125833 1.45546 0.0142262 1.77145C0.0156866 2.03213 0.0116698 9.02257 0.00546322 17.3056C-0.000743371 25.5887 -0.00183874 32.5477 0.00309002 32.7701C0.0204319 33.5627 0.461648 33.6176 7.0399 33.6461C15.3903 33.6821 18.6661 33.4955 20.456 32.8821C21.2084 32.6242 22.0204 32.2589 22.2605 32.07C22.5005 31.8812 22.809 31.7268 22.9461 31.7268C23.0832 31.7268 23.1953 31.6501 23.1953 31.5565C23.1953 31.4628 23.3745 31.3294 23.5936 31.2598C24.0644 31.1105 26.4811 28.6511 26.4811 28.3214C26.4811 28.1964 26.5846 28.0284 26.7111 27.9481C26.8376 27.8678 27.1045 27.4735 27.3044 27.0719C27.5041 26.6703 27.7137 26.3006 27.7699 26.2504C27.9824 26.0606 28.6717 23.7369 28.6717 23.2103C28.6717 22.9078 28.7301 22.6018 28.8016 22.5303C28.9782 22.3538 28.9877 19.6787 28.8117 19.6787C28.7347 19.6787 28.6704 19.3295 28.6689 18.9029C28.6675 18.4763 28.5413 17.7574 28.3887 17.3056C28.2359 16.8538 28.0833 16.402 28.0496 16.3016C28.0156 16.2012 27.9915 16.078 27.9959 16.0278C28.0001 15.9776 27.7843 15.589 27.5162 15.1644C27.2482 14.7396 27.0288 14.3058 27.0288 14.2001C27.0288 14.0946 26.9055 13.961 26.7549 13.9033C26.6043 13.8454 26.4811 13.722 26.4811 13.6289C26.4811 13.3714 24.2551 11.099 24.0029 11.099C23.8813 11.099 23.7347 10.9758 23.6768 10.8252C23.6191 10.6746 23.4461 10.5514 23.2922 10.5514C23.1385 10.5514 23.0127 10.4709 23.0127 10.3723C23.0127 10.2739 22.8074 10.1418 22.5564 10.0788C22.3054 10.0158 22.1 9.89459 22.1 9.80971C22.1 9.72464 21.8132 9.60143 21.4627 9.53571C21.1122 9.46981 20.8718 9.34093 20.9286 9.24911C20.9854 9.15711 20.9642 9.09778 20.8813 9.11731C20.6057 9.18175 19.2756 8.89132 18.9054 8.68577C18.3749 8.39114 8.60523 8.24309 8.08443 8.52166C7.69305 8.73104 7.69287 8.73725 7.68246 16.9661C7.67169 25.5166 7.68776 25.7028 8.43127 25.7028C8.61984 25.7028 8.77409 25.7643 8.77409 25.8397C8.77409 25.9151 9.59555 25.9766 10.5996 25.9766C11.6036 25.9766 12.425 25.9151 12.425 25.8397C12.425 25.7643 12.5433 25.7028 12.6881 25.7028C12.8328 25.7028 13.0008 25.6223 13.0616 25.5241C13.1224 25.4257 13.1669 22.8483 13.1607 19.7963C13.1545 16.7445 13.2005 14.1142 13.2631 13.9511C13.3588 13.7018 13.705 13.6547 15.4458 13.6547C16.5838 13.6547 17.5597 13.7273 17.6146 13.8162C17.6694 13.905 18.0783 14.0322 18.5232 14.099C18.968 14.1656 19.4308 14.3394 19.5518 14.4851C19.6727 14.6308 19.8731 14.75 19.9974 14.75C20.3287 14.75 21.9174 16.1976 21.9174 16.4997C21.9174 16.6417 22.0014 16.758 22.1038 16.758C22.2064 16.758 22.3897 16.984 22.5109 17.26C22.6323 17.536 22.7816 17.8031 22.843 17.8533C22.9043 17.9035 23.0909 18.3494 23.2575 18.8441C23.5633 19.7523 23.6891 22.5993 23.4235 22.5997C23.3481 22.5997 23.275 22.7983 23.2612 23.0411C23.23 23.5834 22.5799 24.9047 22.0416 25.5202C21.487 26.1544 20.0038 27.3457 19.7689 27.3457C19.6621 27.3457 19.5447 27.4359 19.508 27.5461C19.4711 27.6564 19.0516 27.7906 18.5758 27.8442C18.0999 27.8979 17.6665 28.0131 17.6126 28.1002C17.5588 28.1872 14.8587 28.2584 11.6123 28.2584C6.48386 28.2584 5.69581 28.2217 5.60271 27.9793C5.54375 27.8258 5.48205 22.9175 5.46543 17.0721L5.43531 6.4441L12.0791 6.46034C15.7331 6.46929 18.9282 6.51803 19.1792 6.56878C19.9215 6.71883 20.7178 6.94318 20.9134 7.05745C21.0138 7.11605 21.1938 7.17885 21.3132 7.1971C21.8831 7.28363 22.8302 7.6772 22.8302 7.82744C22.8302 7.91999 22.9813 7.99574 23.1659 7.99574C23.5202 7.99574 24.3283 8.55233 25.6136 9.68174C26.0406 10.0569 26.4926 10.3648 26.618 10.3663C26.7436 10.3678 26.8462 10.4773 26.8462 10.6098C26.8462 10.7422 27.0479 11.026 27.2945 11.2405C27.5412 11.455 27.9628 11.9627 28.2316 12.3686C28.5003 12.7748 28.7914 13.107 28.8785 13.107C28.9656 13.107 29.0368 13.2199 29.0368 13.3577C29.0368 13.6908 29.7339 15.2556 29.9387 15.3823C30.0276 15.4371 30.1558 15.8102 30.2235 16.2113C30.2912 16.6123 30.4055 16.9405 30.4774 16.9405C30.5495 16.9405 30.6286 17.2837 30.6534 17.7032C30.678 18.1227 30.7379 18.53 30.7863 18.6081C30.9482 18.8704 30.875 23.046 30.6937 23.8773C30.3369 25.5149 30.0579 26.5261 29.9382 26.6155C29.8712 26.6657 29.7529 26.9121 29.6757 27.1631C29.5985 27.4141 29.4847 27.6606 29.4229 27.7108C29.3612 27.761 29.1069 28.1922 28.8581 28.6692C28.6091 29.1461 28.3477 29.5362 28.277 29.5362C28.2064 29.5362 28.0957 29.7029 28.0311 29.9066C27.8097 30.604 24.8672 33.1872 24.2942 33.1872C24.2018 33.1872 24.0605 33.29 23.9802 33.4154C23.8066 33.6866 22.2057 34.465 21.8212 34.465C21.6734 34.465 21.5524 34.5302 21.5524 34.61C21.5524 34.6897 21.0801 34.9126 20.5027 35.1054C19.5872 35.4111 18.7884 35.4639 14.2505 35.5174C9.04317 35.5791 7.92306 35.7122 8.12733 36.2447C8.17552 36.3702 8.09429 36.473 7.94697 36.473C7.72755 36.473 7.67881 36.8335 7.67881 38.4527C7.67881 40.1526 7.727 40.4759 8.01926 40.7404C8.66109 41.3215 21.259 40.8978 21.7349 40.2791C21.7851 40.2139 22.1513 40.109 22.5487 40.0458C22.9461 39.9828 23.3158 39.8633 23.3702 39.7802C23.4246 39.697 23.7772 39.5723 24.1536 39.5031C24.5302 39.4339 24.8382 39.2988 24.8382 39.203C24.8382 39.1072 24.9514 39.0287 25.0897 39.0287C25.2279 39.0287 25.439 38.9107 25.5587 38.7665C25.6783 38.6225 26.0169 38.4516 26.3112 38.387C26.6054 38.3224 26.8462 38.1913 26.8462 38.0957C26.8462 38.0002 26.9901 37.8675 27.1657 37.801C27.3413 37.7344 27.5788 37.5933 27.693 37.4872C27.8075 37.3812 28.1361 37.134 28.4232 36.9378C29.1131 36.4668 32.3226 33.2242 32.3226 32.9984C32.3226 32.9015 32.4048 32.8221 32.5052 32.8221C32.6056 32.8221 32.6879 32.7195 32.6879 32.5939C32.6881 32.4685 32.8911 32.1297 33.1391 31.8414C33.387 31.553 33.639 31.1627 33.6988 30.9743C33.7587 30.7858 33.8841 30.6315 33.9778 30.6315C34.0714 30.6315 34.1481 30.5005 34.1481 30.3402C34.1481 30.1801 34.2669 29.8309 34.412 29.5644C34.9819 28.5178 35.5327 27.014 35.4524 26.7236C35.4272 26.6323 35.4772 26.5091 35.5634 26.4498C35.6495 26.3902 35.8359 25.8077 35.9776 25.1551C36.2788 23.7685 36.4166 17.8533 36.1477 17.8533C36.0518 17.8533 35.9905 17.7917 36.0113 17.7164C36.1077 17.3664 35.7642 15.4705 35.5194 15.0012C35.3688 14.7124 35.2452 14.3723 35.2444 14.2454C35.2439 14.1185 35.1676 13.8721 35.0749 13.6978C34.9823 13.5234 34.6236 12.8058 34.2777 12.103C33.5391 10.6018 32.998 9.58427 32.8702 9.4563C32.82 9.40592 32.3308 8.83089 31.7832 8.17829C30.7396 6.9346 30.0269 6.2265 29.1516 5.56331C28.8633 5.34498 28.4961 5.02261 28.3352 4.84681C28.1744 4.67102 27.9448 4.52736 27.8248 4.52736C27.7049 4.52736 27.5795 4.46255 27.5459 4.38333C27.4596 4.17888 25.727 3.14146 25.1932 2.9748C24.9477 2.89795 24.5848 2.72307 24.3868 2.58598C24.1889 2.44888 23.8807 2.3368 23.7022 2.3368C23.5239 2.3368 23.3778 2.26195 23.3778 2.17032C23.3778 2.07868 23.0286 1.9498 22.602 1.88372C22.1754 1.81764 21.558 1.68054 21.2303 1.57887C19.8775 1.15919 17.3865 1.03396 9.32173 0.979564C3.77852 0.942142 0.690744 0.987413 0.422583 1.10972ZM38.803 30.2664C38.7409 30.3668 38.3925 30.449 38.0285 30.449C36.7393 30.449 35.1435 31.524 34.4735 32.8436C33.7311 34.306 33.293 36.6556 33.7627 36.6556C33.8518 36.6556 33.9789 36.9431 34.0448 37.2945C34.1106 37.6459 34.2341 37.9334 34.3191 37.9334C34.404 37.9334 34.5278 38.1493 34.594 38.4131C34.8271 39.3421 36.586 40.6716 37.5816 40.6716C37.8901 40.6716 38.1933 40.7537 38.2554 40.8541C38.3936 41.0778 39.6245 41.0991 39.6245 40.8779C39.6245 40.7906 40.0044 40.6763 40.4686 40.624C40.9328 40.5716 41.364 40.4487 41.4269 40.351C41.4897 40.2532 41.7261 40.1156 41.9519 40.0449C42.1777 39.9744 42.3627 39.8403 42.3627 39.7466C42.3627 39.653 42.4859 39.5763 42.6365 39.5763C42.7871 39.5763 42.9103 39.4631 42.9103 39.3248C42.9103 39.1866 43.0282 38.9755 43.1723 38.856C43.7719 38.3584 44.2188 37.1377 44.2414 35.9358C44.2823 33.7498 44.1084 33.2091 42.9893 32.0446C42.4355 31.4681 41.8694 30.9966 41.7314 30.9966C41.5932 30.9966 41.4496 30.9041 41.4118 30.7909C41.374 30.6777 40.9138 30.5439 40.3888 30.4935C39.8638 30.4431 39.3901 30.3303 39.336 30.2429C39.2044 30.03 38.9419 30.0415 38.803 30.2664Z" fill="#004646"/>
</svg>
