<svg width="18" height="22" viewBox="0 0 18 22" fill="none" xmlns="http://www.w3.org/2000/svg">
<mask id="path-1-inside-1_356_312" fill="white">
<path d="M17.6286 14.9989C17.5508 14.9052 17.4744 14.8114 17.3994 14.7209C16.3682 13.4736 15.7443 12.7208 15.7443 9.18969C15.7443 7.36156 15.3069 5.86156 14.4449 4.73656C13.8093 3.90547 12.9501 3.275 11.8176 2.80906C11.803 2.80096 11.79 2.79032 11.7791 2.77766C11.3718 1.41359 10.2571 0.5 8.9999 0.5C7.74271 0.5 6.62849 1.41359 6.22115 2.77625C6.21029 2.78847 6.19746 2.79877 6.18318 2.80672C3.54036 3.89469 2.25599 5.98203 2.25599 9.18828C2.25599 12.7208 1.63302 13.4736 0.600833 14.7195C0.525833 14.81 0.449427 14.9019 0.371614 14.9975C0.170614 15.2399 0.0432647 15.5348 0.00463615 15.8473C-0.0339924 16.1598 0.0177171 16.4769 0.153645 16.7609C0.442864 17.3703 1.05927 17.7486 1.76286 17.7486H16.2421C16.9424 17.7486 17.5546 17.3708 17.8447 16.7642C17.9813 16.4801 18.0335 16.1628 17.9952 15.8499C17.9569 15.537 17.8297 15.2417 17.6286 14.9989ZM8.9999 21.5C9.67726 21.4995 10.3418 21.3156 10.9232 20.9679C11.5045 20.6202 11.9809 20.1217 12.3018 19.5252C12.3169 19.4966 12.3244 19.4646 12.3234 19.4322C12.3225 19.3999 12.3133 19.3684 12.2966 19.3407C12.2799 19.313 12.2563 19.2901 12.2281 19.2742C12.2 19.2583 12.1682 19.25 12.1358 19.25H5.8649C5.83252 19.2499 5.80066 19.2582 5.77243 19.274C5.7442 19.2899 5.72055 19.3128 5.7038 19.3405C5.68704 19.3682 5.67774 19.3997 5.67682 19.4321C5.67588 19.4645 5.68335 19.4965 5.69849 19.5252C6.01936 20.1216 6.49567 20.6201 7.0769 20.9678C7.65813 21.3155 8.32261 21.4994 8.9999 21.5Z"/>
</mask>
<path d="M17.6286 14.9989L18.3989 14.3612L18.3981 14.3602L17.6286 14.9989ZM17.3994 14.7209L16.6287 15.3581L16.6296 15.3592L17.3994 14.7209ZM14.4449 4.73656L13.6506 5.34406L13.6511 5.34479L14.4449 4.73656ZM11.8176 2.80906L11.3314 3.68295L11.3828 3.7115L11.4371 3.73385L11.8176 2.80906ZM11.7791 2.77766L10.8209 3.0638L10.8816 3.26709L11.0197 3.42821L11.7791 2.77766ZM6.22115 2.77625L6.96882 3.44032L7.11584 3.27479L7.17925 3.06266L6.22115 2.77625ZM6.18318 2.80672L6.56385 3.73143L6.6182 3.70905L6.66956 3.68047L6.18318 2.80672ZM0.600833 14.7195L1.37069 15.3578L1.3709 15.3575L0.600833 14.7195ZM0.371614 14.9975L1.14143 15.6358L1.14726 15.6287L0.371614 14.9975ZM0.153645 16.7609L1.05706 16.3322L1.05568 16.3293L0.153645 16.7609ZM17.8447 16.7642L16.9434 16.3311L16.9426 16.3327L17.8447 16.7642ZM8.9999 21.5L8.99896 22.5L9.0007 22.5L8.9999 21.5ZM12.3018 19.5252L13.1824 19.9989L13.1858 19.9927L12.3018 19.5252ZM12.1358 19.25V20.25H12.1368L12.1358 19.25ZM5.8649 19.25L5.86139 20.25H5.8649V19.25ZM5.69849 19.5252L4.81448 19.9927L4.81784 19.9989L5.69849 19.5252ZM18.3981 14.3602C18.2965 14.2378 18.2755 14.2108 18.1693 14.0827L16.6296 15.3592C16.6734 15.412 16.8051 15.5725 16.8592 15.6376L18.3981 14.3602ZM18.1701 14.0837C17.6491 13.4535 17.344 13.074 17.1252 12.4708C16.8989 11.8468 16.7443 10.9119 16.7443 9.18969H14.7443C14.7443 10.9986 14.9016 12.2056 15.245 13.1527C15.596 14.1205 16.1185 14.7411 16.6287 15.3581L18.1701 14.0837ZM16.7443 9.18969C16.7443 7.20611 16.269 5.47294 15.2387 4.12834L13.6511 5.34479C14.3449 6.25019 14.7443 7.51702 14.7443 9.18969H16.7443ZM15.2392 4.12906C14.4791 3.13519 13.4661 2.40597 12.198 1.88427L11.4371 3.73385C12.434 4.14403 13.1394 4.67575 13.6506 5.34406L15.2392 4.12906ZM12.3037 1.93517C12.3928 1.98473 12.4723 2.04973 12.5386 2.1271L11.0197 3.42821C11.1076 3.53091 11.2132 3.61718 11.3314 3.68295L12.3037 1.93517ZM12.7373 2.49152C12.2261 0.779804 10.7736 -0.5 8.9999 -0.5V1.5C9.74053 1.5 10.5174 2.04738 10.8209 3.0638L12.7373 2.49152ZM8.9999 -0.5C7.2262 -0.5 5.77425 0.779729 5.26304 2.48984L7.17925 3.06266C7.48273 2.04746 8.25922 1.5 8.9999 1.5V-0.5ZM5.47347 2.11218C5.5373 2.04031 5.6128 1.97973 5.6968 1.93297L6.66956 3.68047C6.78211 3.61781 6.88328 3.53662 6.96882 3.44032L5.47347 2.11218ZM5.8025 1.88201C4.31765 2.49328 3.15586 3.41316 2.37687 4.67905C1.60346 5.93586 1.25599 7.45439 1.25599 9.18828H3.25599C3.25599 7.71593 3.55071 6.58765 4.08019 5.72724C4.60408 4.8759 5.40589 4.20813 6.56385 3.73143L5.8025 1.88201ZM1.25599 9.18828C1.25599 10.9114 1.10154 11.8466 0.875353 12.4705C0.656823 13.0733 0.351958 13.4524 -0.169237 14.0816L1.3709 15.3575C1.8819 14.7407 2.40461 14.1204 2.75561 13.1522C3.09895 12.2051 3.25599 10.9977 3.25599 9.18828H1.25599ZM-0.169021 14.0813C-0.242583 14.17 -0.322608 14.2663 -0.404034 14.3663L1.14726 15.6287C1.22146 15.5375 1.29425 15.45 1.37069 15.3578L-0.169021 14.0813ZM-0.398169 14.3592C-0.721126 14.7487 -0.925745 15.2225 -0.987811 15.7247L0.997084 15.97C1.01227 15.8471 1.06235 15.7311 1.1414 15.6358L-0.398169 14.3592ZM-0.987811 15.7247C-1.04988 16.2268 -0.966793 16.7362 -0.748391 17.1926L1.05568 16.3293C1.00223 16.2176 0.981893 16.0929 0.997084 15.97L-0.987811 15.7247ZM-0.749767 17.1897C-0.286017 18.1668 0.69442 18.7486 1.76286 18.7486V16.7486C1.42412 16.7486 1.17174 16.5738 1.05706 16.3322L-0.749767 17.1897ZM1.76286 18.7486H16.2421V16.7486H1.76286V18.7486ZM16.2421 18.7486C17.3101 18.7486 18.2832 18.1651 18.7468 17.1957L16.9426 16.3327C16.826 16.5765 16.5747 16.7486 16.2421 16.7486V18.7486ZM18.7461 17.1973C18.9654 16.7408 19.0493 16.2311 18.9877 15.7284L17.0026 15.9714C17.0176 16.0945 16.9971 16.2194 16.9434 16.3311L18.7461 17.1973ZM18.9877 15.7284C18.9262 15.2258 18.7219 14.7513 18.3989 14.3612L16.8584 15.6366C16.9375 15.7321 16.9875 15.8483 17.0026 15.9714L18.9877 15.7284ZM9.0007 22.5C9.85856 22.4993 10.7002 22.2664 11.4365 21.8261L10.4099 20.1097C9.98345 20.3647 9.49595 20.4996 8.99909 20.5L9.0007 22.5ZM11.4365 21.8261C12.1727 21.3858 12.776 20.7544 13.1824 19.9989L11.4211 19.0514C11.1857 19.489 10.8363 19.8546 10.4099 20.1097L11.4365 21.8261ZM13.1858 19.9927C13.2815 19.8116 13.3288 19.6089 13.3231 19.4041L11.3238 19.4603C11.3199 19.3203 11.3523 19.1815 11.4178 19.0577L13.1858 19.9927ZM13.3231 19.4041C13.3173 19.1994 13.2587 18.9996 13.1529 18.8242L11.4403 19.8571C11.3679 19.7371 11.3278 19.6004 11.3238 19.4603L13.3231 19.4041ZM13.1529 18.8242C13.0471 18.6489 12.8978 18.5038 12.7194 18.4032L11.7369 20.1452C11.6148 20.0763 11.5126 19.9771 11.4403 19.8571L13.1529 18.8242ZM12.7194 18.4032C12.541 18.3026 12.3396 18.2498 12.1348 18.25L12.1368 20.25C11.9967 20.2501 11.8589 20.214 11.7369 20.1452L12.7194 18.4032ZM12.1358 18.25H5.8649V20.25H12.1358V18.25ZM5.86841 18.25C5.66333 18.2493 5.46158 18.3017 5.28278 18.4021L6.26207 20.1459C6.13974 20.2146 6.0017 20.2505 5.86139 20.25L5.86841 18.25ZM5.28278 18.4021C5.10399 18.5025 4.95423 18.6475 4.84811 18.823L6.55948 19.858C6.48687 19.978 6.38441 20.0772 6.26207 20.1459L5.28278 18.4021ZM4.84811 18.823C4.74199 18.9984 4.68312 19.1984 4.67723 19.4034L6.6764 19.4608C6.67237 19.6011 6.63209 19.7379 6.55948 19.858L4.84811 18.823ZM4.67723 19.4034C4.67134 19.6084 4.71864 19.8114 4.8145 19.9927L6.58248 19.0576C6.64807 19.1817 6.68043 19.3206 6.6764 19.4608L4.67723 19.4034ZM4.81784 19.9989C5.22422 20.7543 5.82744 21.3856 6.56355 21.826L7.59025 20.1096C7.1639 19.8546 6.81451 19.4889 6.57914 19.0514L4.81784 19.9989ZM6.56355 21.826C7.29966 22.2663 8.14121 22.4992 8.99896 22.5L9.00083 20.5C8.50402 20.4995 8.0166 20.3646 7.59025 20.1096L6.56355 21.826Z" fill="#979797" mask="url(#path-1-inside-1_356_312)"/>
</svg>
