<svg width="19" height="20" viewBox="0 0 19 20" fill="none" xmlns="http://www.w3.org/2000/svg">
<path d="M18.6843 12.5422L17.2222 11.2921C17.2914 10.8679 17.3271 10.4349 17.3271 10.0018C17.3271 9.56874 17.2914 9.13568 17.2222 8.71154L18.6843 7.46146C18.7946 7.36704 18.8736 7.2413 18.9106 7.10094C18.9477 6.96058 18.9412 6.81225 18.8919 6.67569L18.8718 6.61765C18.4693 5.49262 17.8666 4.44971 17.0927 3.53931L17.0525 3.49243C16.9586 3.38205 16.8335 3.3027 16.6937 3.26484C16.5538 3.22698 16.4057 3.2324 16.269 3.28036L14.4541 3.9255C13.7844 3.37635 13.0366 2.94328 12.2285 2.63969L11.8781 0.742239C11.8516 0.599466 11.7824 0.468118 11.6795 0.365645C11.5766 0.263173 11.445 0.194426 11.3021 0.168538L11.2419 0.157377C10.0788 -0.052459 8.85553 -0.052459 7.6925 0.157377L7.63223 0.168538C7.48936 0.194426 7.35774 0.263173 7.25487 0.365645C7.152 0.468118 7.08274 0.599466 7.0563 0.742239L6.70359 2.64862C5.90196 2.95229 5.15543 3.38513 4.49362 3.92996L2.66537 3.28036C2.52867 3.23201 2.38051 3.22641 2.24055 3.26429C2.1006 3.30217 1.97548 3.38174 1.88183 3.49243L1.84165 3.53931C1.0687 4.45036 0.466046 5.49309 0.0625089 6.61765L0.0424181 6.67569C-0.0580352 6.95472 0.0245598 7.26725 0.250022 7.46146L1.73004 8.72494C1.66083 9.14461 1.62735 9.57321 1.62735 9.99958C1.62735 10.4282 1.66083 10.8568 1.73004 11.2742L0.250022 12.5377C0.139737 12.6321 0.0608044 12.7579 0.0237204 12.8982C-0.0133636 13.0386 -0.006842 13.1869 0.0424181 13.3235L0.0625089 13.3815C0.466555 14.5066 1.06481 15.5446 1.84165 16.4598L1.88183 16.5067C1.97571 16.6171 2.10083 16.6965 2.2407 16.7343C2.38057 16.7722 2.52863 16.7668 2.66537 16.7188L4.49362 16.0692C5.15884 16.6161 5.9022 17.0492 6.70359 17.3505L7.0563 19.2569C7.08274 19.3997 7.152 19.531 7.25487 19.6335C7.35774 19.736 7.48936 19.8047 7.63223 19.8306L7.6925 19.8418C8.86621 20.0527 10.0681 20.0527 11.2419 19.8418L11.3021 19.8306C11.445 19.8047 11.5766 19.736 11.6795 19.6335C11.7824 19.531 11.8516 19.3997 11.8781 19.2569L12.2285 17.3595C13.0363 17.0567 13.7883 16.6222 14.4541 16.0737L16.269 16.7188C16.4057 16.7671 16.5539 16.7727 16.6938 16.7349C16.8338 16.697 16.9589 16.6174 17.0525 16.5067L17.0927 16.4598C17.8695 15.5424 18.4678 14.5066 18.8718 13.3815L18.8919 13.3235C18.9924 13.0489 18.9098 12.7364 18.6843 12.5422ZM15.6372 8.97495C15.6931 9.31203 15.7221 9.65804 15.7221 10.004C15.7221 10.35 15.6931 10.6961 15.6372 11.0331L15.4899 11.9283L17.1574 13.3547C16.9047 13.9371 16.5856 14.4884 16.2065 14.9977L14.1349 14.2633L13.434 14.8392C12.9005 15.2767 12.3067 15.6205 11.6638 15.8616L10.8133 16.1808L10.4137 18.3461C9.78321 18.4176 9.14669 18.4176 8.51622 18.3461L8.11664 16.1763L7.27283 15.8527C6.63662 15.6116 6.04507 15.2678 5.51601 14.8325L4.81507 14.2543L2.7301 14.9955C2.35061 14.4843 2.03363 13.9329 1.77915 13.3525L3.46453 11.9127L3.31943 11.0197C3.26586 10.6871 3.23684 10.3434 3.23684 10.004C3.23684 9.6625 3.26362 9.32096 3.31943 8.98835L3.46453 8.09543L1.77915 6.6556C2.0314 6.07297 2.35061 5.52382 2.7301 5.01262L4.81507 5.75375L5.51601 5.17558C6.04507 4.74028 6.63662 4.39651 7.27283 4.15542L8.11887 3.8362L8.51845 1.66641C9.14573 1.59498 9.7864 1.59498 10.4159 1.66641L10.8155 3.83174L11.666 4.15096C12.3067 4.39205 12.9027 4.73582 13.4362 5.17335L14.1371 5.74928L16.2087 5.01486C16.5882 5.52605 16.9052 6.07743 17.1597 6.65783L15.4921 8.08427L15.6372 8.97495ZM9.46941 5.85197C7.29962 5.85197 5.54057 7.61102 5.54057 9.78081C5.54057 11.9506 7.29962 13.7097 9.46941 13.7097C11.6392 13.7097 13.3983 11.9506 13.3983 9.78081C13.3983 7.61102 11.6392 5.85197 9.46941 5.85197ZM11.2374 11.5488C11.0055 11.7813 10.7299 11.9658 10.4265 12.0914C10.1231 12.2171 9.79782 12.2815 9.46941 12.281C8.80195 12.281 8.17468 12.0198 7.70143 11.5488C7.46888 11.3169 7.28447 11.0413 7.15881 10.7379C7.03315 10.4345 6.96873 10.1092 6.96924 9.78081C6.96924 9.11336 7.23042 8.48608 7.70143 8.01283C8.17468 7.53959 8.80195 7.28064 9.46941 7.28064C10.1369 7.28064 10.7641 7.53959 11.2374 8.01283C11.4699 8.24472 11.6544 8.5203 11.78 8.82372C11.9057 9.12714 11.9701 9.4524 11.9696 9.78081C11.9696 10.4483 11.7084 11.0755 11.2374 11.5488Z" fill="#979797"/>
</svg>
