<svg width="13" height="12" viewBox="0 0 13 12" fill="none" xmlns="http://www.w3.org/2000/svg">
<path d="M11.5003 6.83171H7.33366V10.9984C7.33366 11.2194 7.24586 11.4313 7.08958 11.5876C6.9333 11.7439 6.72134 11.8317 6.50033 11.8317C6.27931 11.8317 6.06735 11.7439 5.91107 11.5876C5.75479 11.4313 5.66699 11.2194 5.66699 10.9984V6.83171H1.50033C1.27931 6.83171 1.06735 6.74391 0.91107 6.58763C0.75479 6.43135 0.666992 6.21939 0.666992 5.99837C0.666992 5.77736 0.75479 5.5654 0.91107 5.40912C1.06735 5.25284 1.27931 5.16504 1.50033 5.16504H5.66699V0.998372C5.66699 0.777359 5.75479 0.565397 5.91107 0.409117C6.06735 0.252836 6.27931 0.165039 6.50033 0.165039C6.72134 0.165039 6.9333 0.252836 7.08958 0.409117C7.24586 0.565397 7.33366 0.777359 7.33366 0.998372V5.16504H11.5003C11.7213 5.16504 11.9333 5.25284 12.0896 5.40912C12.2459 5.5654 12.3337 5.77736 12.3337 5.99837C12.3337 6.21939 12.2459 6.43135 12.0896 6.58763C11.9333 6.74391 11.7213 6.83171 11.5003 6.83171Z" fill="#004646"/>
</svg>
