<svg width="52" height="52" viewBox="0 0 52 52" fill="none" xmlns="http://www.w3.org/2000/svg">
<rect width="52" height="52" rx="8" fill="#64AAAA"/>
<path d="M28.6663 12.6667H17.9997C17.2924 12.6667 16.6142 12.9477 16.1141 13.4478C15.614 13.9479 15.333 14.6262 15.333 15.3334V36.6667C15.333 37.374 15.614 38.0523 16.1141 38.5524C16.6142 39.0525 17.2924 39.3334 17.9997 39.3334H33.9997C34.7069 39.3334 35.3852 39.0525 35.8853 38.5524C36.3854 38.0523 36.6663 37.374 36.6663 36.6667V20.6667M28.6663 12.6667L36.6663 20.6667M28.6663 12.6667V20.6667H36.6663M31.333 27.3334H20.6663M31.333 32.6667H20.6663M23.333 22.0001H20.6663" stroke="white" strokeWidth="2.66667" strokeLinecap="round" strokeLinejoin="round"/>
</svg>
