<svg width="52" height="52" viewBox="0 0 52 52" fill="none" xmlns="http://www.w3.org/2000/svg">
<rect width="52" height="52" rx="8" fill="#64AAAA"/>
<path d="M16.6667 38H35.3333C36.8061 38 38 36.8061 38 35.3333V16.6667C38 15.1939 36.8061 14 35.3333 14H16.6667C15.1939 14 14 15.1939 14 16.6667V35.3333C14 36.8061 15.1939 38 16.6667 38ZM16.6667 38L31.3333 23.3333L38 30M23.3333 21.3333C23.3333 22.4379 22.4379 23.3333 21.3333 23.3333C20.2288 23.3333 19.3333 22.4379 19.3333 21.3333C19.3333 20.2288 20.2288 19.3333 21.3333 19.3333C22.4379 19.3333 23.3333 20.2288 23.3333 21.3333Z" stroke="white" strokeWidth="2.66667" strokeLinecap="round" strokeLinejoin="round"/>
</svg>
