<svg width="52" height="52" viewBox="0 0 52 52" fill="none" xmlns="http://www.w3.org/2000/svg">
<rect width="52" height="52" rx="8" fill="#64AAAA"/>
<path d="M14.36 19.28L26 26.0134L37.64 19.28M26 39.44V26M38 31.3334V20.6667C37.9995 20.1991 37.8761 19.7398 37.6421 19.3349C37.408 18.9301 37.0717 18.5938 36.6667 18.36L27.3333 13.0267C26.9279 12.7927 26.4681 12.6694 26 12.6694C25.5319 12.6694 25.0721 12.7927 24.6667 13.0267L15.3333 18.36C14.9284 18.5938 14.592 18.9301 14.3579 19.3349C14.1239 19.7398 14.0005 20.1991 14 20.6667V31.3334C14.0005 31.801 14.1239 32.2603 14.3579 32.6651C14.592 33.07 14.9284 33.4062 15.3333 33.64L24.6667 38.9734C25.0721 39.2074 25.5319 39.3306 26 39.3306C26.4681 39.3306 26.9279 39.2074 27.3333 38.9734L36.6667 33.64C37.0717 33.4062 37.408 33.07 37.6421 32.6651C37.8761 32.2603 37.9995 31.801 38 31.3334Z" stroke="white" strokeWidth="2" strokeLinecap="round" strokeLinejoin="round"/>
</svg>
