<svg width="32" height="33" viewBox="0 0 32 33" fill="none" xmlns="http://www.w3.org/2000/svg">
<rect y="0.549805" width="32" height="32" rx="6" fill="black" fill-opacity="0.08"/>
<path d="M12.3331 19.311V14.4424H13.3018V19.311H12.3331ZM10.3849 17.3593V16.3942H15.2535V17.3593H10.3849ZM19.5894 20.6506C19.2605 20.6458 18.9364 20.5858 18.6171 20.4706C18.3002 20.3553 18.0121 20.1633 17.7529 19.8944C17.4936 19.6255 17.2859 19.2642 17.1299 18.8105C16.9762 18.3568 16.8994 17.7902 16.8994 17.1108C16.8994 16.4674 16.963 15.896 17.0903 15.3967C17.2199 14.8973 17.4059 14.476 17.6484 14.1327C17.8909 13.787 18.1838 13.5241 18.5271 13.3441C18.8704 13.164 19.2557 13.074 19.683 13.074C20.1224 13.074 20.5125 13.1604 20.8534 13.3333C21.1943 13.5061 21.4704 13.745 21.6816 14.0499C21.8953 14.3548 22.0309 14.7017 22.0885 15.0906H20.9902C20.9158 14.7833 20.7682 14.5324 20.5473 14.338C20.3264 14.1435 20.0383 14.0463 19.683 14.0463C19.1429 14.0463 18.7215 14.2815 18.4191 14.7521C18.119 15.2226 17.9677 15.8768 17.9653 16.7147H18.0193C18.1466 16.5058 18.3026 16.3281 18.4875 16.1817C18.6747 16.0329 18.8836 15.9188 19.1141 15.8396C19.3469 15.758 19.5918 15.7172 19.8487 15.7172C20.276 15.7172 20.6625 15.8216 21.0082 16.0305C21.3563 16.2369 21.6336 16.5226 21.8401 16.8875C22.0465 17.2524 22.1498 17.6701 22.1498 18.1407C22.1498 18.6112 22.0429 19.0374 21.8293 19.4191C21.618 19.8008 21.3203 20.1033 20.9362 20.3265C20.5521 20.5474 20.1032 20.6554 19.5894 20.6506ZM19.5858 19.7144C19.8691 19.7144 20.1224 19.6447 20.3456 19.5055C20.5689 19.3663 20.7453 19.179 20.875 18.9437C21.0046 18.7085 21.0694 18.4456 21.0694 18.1551C21.0694 17.8718 21.0058 17.6137 20.8786 17.3809C20.7537 17.148 20.5809 16.9631 20.36 16.8263C20.1416 16.6895 19.8919 16.621 19.611 16.621C19.3973 16.621 19.1993 16.6618 19.0168 16.7435C18.8368 16.8251 18.6783 16.9379 18.5415 17.082C18.4046 17.226 18.2966 17.3917 18.2174 17.5789C18.1406 17.7638 18.1022 17.9594 18.1022 18.1659C18.1022 18.442 18.1658 18.6977 18.293 18.9329C18.4227 19.1682 18.5991 19.3578 18.8224 19.5019C19.048 19.6435 19.3025 19.7144 19.5858 19.7144Z" fill="#AFAFAF"/>
</svg>
