<svg width="32" height="33" viewBox="0 0 32 33" fill="none" xmlns="http://www.w3.org/2000/svg">
<path d="M0 0.769897H32V32.7699H0V0.769897Z" fill="#D5D7E0"/>
<path d="M0.1 0.769897H0V0.869897H0.1V0.769897Z" fill="#D5D7E1"/>
<path d="M23 21.7699H9V22.7699H23V21.7699ZM23 22.7699H9V23.7699H23V22.7699ZM23 23.7699H9V24.7699H23V23.7699ZM23 24.7699H9V25.7699H23V24.7699ZM11 25.7699H9V26.7699H11V25.7699ZM23 25.7699H12V26.7699H23V25.7699ZM11 26.7699H9V27.7699H11V26.7699ZM23 26.7699H12V27.7699H23V26.7699ZM11 27.7699H9V28.7699H11V27.7699ZM23 27.7699H12V28.7699H23V27.7699ZM11 28.7699H9V29.7699H11V28.7699ZM23 28.7699H12V29.7699H23V28.7699ZM11 29.7699H9V30.7699H11V29.7699ZM23 29.7699H12V30.7699H23V29.7699ZM11 30.7699H9V31.7699H11V30.7699ZM23 30.7699H12V31.7699H23V30.7699ZM11 31.7699H9V32.7699H11V31.7699ZM23 31.7699H12V32.7699H23V31.7699Z" fill="#EED811"/>
<path d="M23 21.7699H9V22.7699H23V21.7699Z" fill="#505A5C"/>
<path d="M11 22.7699H9V23.7699H11V22.7699Z" fill="#FF1A0B"/>
<path d="M17 22.7699H11V23.7699H17V22.7699Z" fill="#505A5C"/>
<path d="M20 22.7699H17V23.7699H20V22.7699Z" fill="#FF1A0B"/>
<path d="M23 22.7699H20V23.7699H23V22.7699Z" fill="#505A5C"/>
<path d="M11 23.7699H9V24.7699H11V23.7699Z" fill="#F78A18"/>
<path d="M22 23.7699H11V24.7699H22V23.7699Z" fill="#505A5C"/>
<path d="M23 23.7699H22V24.7699H23V23.7699ZM10 24.7699H9V25.7699H10V24.7699Z" fill="#F78A18"/>
<path d="M19 24.7699H10V25.7699H19V24.7699Z" fill="#505A5C"/>
<path d="M20 24.7699H19V25.7699H20V24.7699Z" fill="#F78A18"/>
<path d="M22 24.7699H20V25.7699H22V24.7699Z" fill="#505A5C"/>
<path d="M23 24.7699H22V25.7699H23V24.7699Z" fill="#F78A18"/>
<path d="M11 25.7699H9V26.7699H11V25.7699ZM13 25.7699H12V26.7699H13V25.7699Z" fill="#505A5C"/>
<path d="M14 25.7699H13V26.7699H14V25.7699Z" fill="#FFF449"/>
<path d="M17 25.7699H14V26.7699H17V25.7699Z" fill="#505A5C"/>
<path d="M19 25.7699H17V26.7699H19V25.7699Z" fill="#FFF449"/>
<path d="M23 25.7699H19V26.7699H23V25.7699ZM11 26.7699H9V27.7699H11V26.7699ZM20 26.7699H12V27.7699H20V26.7699Z" fill="#505A5C"/>
<path d="M23 26.7699H20V27.7699H23V26.7699Z" fill="#FFF449"/>
<path d="M10 27.7699H9V28.7699H10V27.7699Z" fill="#505A5C"/>
<path d="M11 27.7699H10V28.7699H11V27.7699Z" fill="#068940"/>
<path d="M13 27.7699H12V28.7699H13V27.7699Z" fill="#505A5C"/>
<path d="M15 27.7699H13V28.7699H15V27.7699Z" fill="#068940"/>
<path d="M18 27.7699H15V28.7699H18V27.7699Z" fill="#505A5C"/>
<path d="M23 27.7699H18V28.7699H23V27.7699ZM11 28.7699H9V29.7699H11V28.7699Z" fill="#068940"/>
<path d="M20 28.7699H12V29.7699H20V28.7699Z" fill="#505A5C"/>
<path d="M23 28.7699H20V29.7699H23V28.7699Z" fill="#068940"/>
<path d="M11 29.7699H9V30.7699H11V29.7699Z" fill="#2B83F6"/>
<path d="M13 29.7699H12V30.7699H13V29.7699Z" fill="#505A5C"/>
<path d="M17 29.7699H13V30.7699H17V29.7699Z" fill="#2B83F6"/>
<path d="M19 29.7699H17V30.7699H19V29.7699Z" fill="#505A5C"/>
<path d="M20 29.7699H19V30.7699H20V29.7699Z" fill="#2B83F6"/>
<path d="M22 29.7699H20V30.7699H22V29.7699Z" fill="#505A5C"/>
<path d="M23 29.7699H22V30.7699H23V29.7699ZM10 30.7699H9V31.7699H10V30.7699Z" fill="#2B83F6"/>
<path d="M11 30.7699H10V31.7699H11V30.7699ZM23 30.7699H12V31.7699H23V30.7699Z" fill="#505A5C"/>
<path d="M11 31.7699H9V32.7699H11V31.7699Z" fill="#9F21A0"/>
<path d="M23 31.7699H12V32.7699H23V31.7699Z" fill="#505A5C"/>
<path d="M18 5.7699H14V6.7699H18V5.7699ZM20 6.7699H12V7.7699H20V6.7699ZM22 7.7699H10V8.7699H22V7.7699Z" fill="#FFB913"/>
<path d="M26 7.7699H24V8.7699H26V7.7699Z" fill="#667AF9"/>
<path d="M9 8.7699H4V9.7699H9V8.7699Z" fill="#FFF0EE"/>
<path d="M23 8.7699H9V9.7699H23V8.7699Z" fill="#FFB913"/>
<path d="M26 8.7699H24V9.7699H26V8.7699Z" fill="#667AF9"/>
<path d="M4 9.7699H3V10.7699H4V9.7699Z" fill="#FFF0EE"/>
<path d="M23 9.7699H9V10.7699H23V9.7699Z" fill="#FFB913"/>
<path d="M4 10.7699H3V11.7699H4V10.7699Z" fill="#FFF0EE"/>
<path d="M10 10.7699H8V11.7699H10V10.7699Z" fill="#FE500C"/>
<path d="M23 10.7699H10V11.7699H23V10.7699Z" fill="#FFB913"/>
<path d="M24 10.7699H23V11.7699H24V10.7699Z" fill="#FE500C"/>
<path d="M4 11.7699H3V12.7699H4V11.7699Z" fill="#FFF0EE"/>
<path d="M11 11.7699H8V12.7699H11V11.7699Z" fill="#FE500C"/>
<path d="M23 11.7699H11V12.7699H23V11.7699Z" fill="#FFB913"/>
<path d="M24 11.7699H23V12.7699H24V11.7699Z" fill="#FE500C"/>
<path d="M5 12.7699H4V13.7699H5V12.7699Z" fill="#FFF0EE"/>
<path d="M9 12.7699H7V13.7699H9V12.7699Z" fill="#E11833"/>
<path d="M12 12.7699H9V13.7699H12V12.7699Z" fill="#FE500C"/>
<path d="M23 12.7699H12V13.7699H23V12.7699Z" fill="#FFB913"/>
<path d="M25 12.7699H23V13.7699H25V12.7699Z" fill="#FE500C"/>
<path d="M6 13.7699H5V14.7699H6V13.7699Z" fill="#FFF0EE"/>
<path d="M9 13.7699H7V14.7699H9V13.7699Z" fill="#E11833"/>
<path d="M13 13.7699H9V14.7699H13V13.7699Z" fill="#FE500C"/>
<path d="M22 13.7699H13V14.7699H22V13.7699Z" fill="#FFB913"/>
<path d="M25 13.7699H22V14.7699H25V13.7699Z" fill="#FE500C"/>
<path d="M7 14.7699H6V15.7699H7V14.7699Z" fill="#FFF0EE"/>
<path d="M10 14.7699H7V15.7699H10V14.7699Z" fill="#E11833"/>
<path d="M16 14.7699H10V15.7699H16V14.7699Z" fill="#FE500C"/>
<path d="M21 14.7699H16V15.7699H21V14.7699Z" fill="#FFB913"/>
<path d="M25 14.7699H21V15.7699H25V14.7699Z" fill="#FE500C"/>
<path d="M8 15.7699H7V16.7699H8V15.7699Z" fill="#FFF0EE"/>
<path d="M10 15.7699H8V16.7699H10V15.7699Z" fill="#E11833"/>
<path d="M25 15.7699H10V16.7699H25V15.7699Z" fill="#FE500C"/>
<path d="M9 16.7699H8V17.7699H9V16.7699Z" fill="#FFF0EE"/>
<path d="M13 16.7699H9V17.7699H13V16.7699Z" fill="#E11833"/>
<path d="M24 16.7699H13V17.7699H24V16.7699Z" fill="#FE500C"/>
<path d="M25 16.7699H24V17.7699H25V16.7699Z" fill="#FFF0EE"/>
<path d="M28 16.7699H27V17.7699H28V16.7699Z" fill="#FFB913"/>
<path d="M9 17.7699H8V18.7699H9V17.7699Z" fill="#E11833"/>
<path d="M11 17.7699H9V18.7699H11V17.7699Z" fill="#FFF0EE"/>
<path d="M16 17.7699H11V18.7699H16V17.7699Z" fill="#E11833"/>
<path d="M22 17.7699H16V18.7699H22V17.7699Z" fill="#FE500C"/>
<path d="M24 17.7699H22V18.7699H24V17.7699Z" fill="#E11833"/>
<path d="M26 17.7699H25V18.7699H26V17.7699Z" fill="#FFF0EE"/>
<path d="M11 18.7699H9V19.7699H11V18.7699Z" fill="#E11833"/>
<path d="M13 18.7699H11V19.7699H13V18.7699Z" fill="#FFF0EE"/>
<path d="M23 18.7699H13V19.7699H23V18.7699Z" fill="#E11833"/>
<path d="M27 18.7699H26V19.7699H27V18.7699Z" fill="#FFF0EE"/>
<path d="M8 19.7699H6V20.7699H8V19.7699Z" fill="#FFB913"/>
<path d="M13 19.7699H9V20.7699H13V19.7699Z" fill="#E11833"/>
<path d="M16 19.7699H13V20.7699H16V19.7699Z" fill="#FFF0EE"/>
<path d="M23 19.7699H16V20.7699H23V19.7699Z" fill="#E11833"/>
<path d="M28 19.7699H27V20.7699H28V19.7699Z" fill="#FFF0EE"/>
<path d="M6 20.7699H5V21.7699H6V20.7699Z" fill="#667AF9"/>
<path d="M8 20.7699H6V21.7699H8V20.7699Z" fill="#FFB913"/>
<path d="M16 20.7699H10V21.7699H16V20.7699Z" fill="#E11833"/>
<path d="M19 20.7699H16V21.7699H19V20.7699Z" fill="#FFF0EE"/>
<path d="M22 20.7699H19V21.7699H22V20.7699Z" fill="#E11833"/>
<path d="M28 20.7699H27V21.7699H28V20.7699Z" fill="#FFF0EE"/>
<path d="M7 21.7699H5V22.7699H7V21.7699Z" fill="#667AF9"/>
<path d="M19 21.7699H12V22.7699H19V21.7699Z" fill="#E11833"/>
<path d="M22 21.7699H19V22.7699H22V21.7699ZM28 21.7699H27V22.7699H28V21.7699Z" fill="#FFF0EE"/>
<path d="M18 22.7699H14V23.7699H18V22.7699Z" fill="#E11833"/>
<path d="M27 22.7699H22V23.7699H27V22.7699Z" fill="#FFF0EE"/>
<path d="M16 11.7699H10V12.7699H16V11.7699ZM23 11.7699H17V12.7699H23V11.7699ZM11 12.7699H10V13.7699H11V12.7699Z" fill="black"/>
<path d="M13 12.7699H11V13.7699H13V12.7699Z" fill="white"/>
<path d="M16 12.7699H13V13.7699H16V12.7699ZM18 12.7699H17V13.7699H18V12.7699Z" fill="black"/>
<path d="M20 12.7699H18V13.7699H20V12.7699Z" fill="white"/>
<path d="M23 12.7699H20V13.7699H23V12.7699ZM11 13.7699H7V14.7699H11V13.7699Z" fill="black"/>
<path d="M13 13.7699H11V14.7699H13V13.7699Z" fill="white"/>
<path d="M18 13.7699H13V14.7699H18V13.7699Z" fill="black"/>
<path d="M20 13.7699H18V14.7699H20V13.7699Z" fill="white"/>
<path d="M23 13.7699H20V14.7699H23V13.7699ZM8 14.7699H7V15.7699H8V14.7699ZM11 14.7699H10V15.7699H11V14.7699Z" fill="black"/>
<path d="M13 14.7699H11V15.7699H13V14.7699Z" fill="white"/>
<path d="M16 14.7699H13V15.7699H16V14.7699ZM18 14.7699H17V15.7699H18V14.7699Z" fill="black"/>
<path d="M20 14.7699H18V15.7699H20V14.7699Z" fill="white"/>
<path d="M23 14.7699H20V15.7699H23V14.7699ZM8 15.7699H7V16.7699H8V15.7699ZM11 15.7699H10V16.7699H11V15.7699Z" fill="black"/>
<path d="M13 15.7699H11V16.7699H13V15.7699Z" fill="white"/>
<path d="M16 15.7699H13V16.7699H16V15.7699ZM18 15.7699H17V16.7699H18V15.7699Z" fill="black"/>
<path d="M20 15.7699H18V16.7699H20V15.7699Z" fill="white"/>
<path d="M23 15.7699H20V16.7699H23V15.7699ZM16 16.7699H10V17.7699H16V16.7699ZM23 16.7699H17V17.7699H23V16.7699Z" fill="black"/>
</svg>
