<svg width="32" height="33" viewBox="0 0 32 33" fill="none" xmlns="http://www.w3.org/2000/svg">
<path d="M0 0.159912H32V32.1599H0V0.159912Z" fill="#DFD7D5"/>
<path d="M0.1 0.159912H0V0.259912H0.1V0.159912Z" fill="#E1D7D5"/>
<path d="M23 21.1599H9V22.1599H23V21.1599ZM23 22.1599H9V23.1599H23V22.1599ZM23 23.1599H9V24.1599H23V23.1599ZM23 24.1599H9V25.1599H23V24.1599ZM11 25.1599H9V26.1599H11V25.1599ZM23 25.1599H12V26.1599H23V25.1599ZM11 26.1599H9V27.1599H11V26.1599ZM23 26.1599H12V27.1599H23V26.1599ZM11 27.1599H9V28.1599H11V27.1599ZM23 27.1599H12V28.1599H23V27.1599ZM11 28.1599H9V29.1599H11V28.1599ZM23 28.1599H12V29.1599H23V28.1599ZM11 29.1599H9V30.1599H11V29.1599ZM23 29.1599H12V30.1599H23V29.1599ZM11 30.1599H9V31.1599H11V30.1599ZM23 30.1599H12V31.1599H23V30.1599ZM11 31.1599H9V32.1599H11V31.1599ZM23 31.1599H12V32.1599H23V31.1599Z" fill="#1F1D29"/>
<path d="M13 21.1599H12V22.1599H13V21.1599ZM20 21.1599H19V22.1599H20V21.1599ZM14 22.1599H13V23.1599H14V22.1599ZM19 22.1599H18V23.1599H19V22.1599ZM15 23.1599H14V24.1599H15V23.1599ZM18 23.1599H17V24.1599H18V23.1599ZM17 24.1599H15V25.1599H17V24.1599Z" fill="#FFC110"/>
<path d="M19 25.1599H13V26.1599H19V25.1599Z" fill="#FFF671"/>
<path d="M17 26.1599H13V27.1599H17V26.1599Z" fill="#FFC110"/>
<path d="M19 26.1599H17V27.1599H19V26.1599Z" fill="#FFF671"/>
<path d="M17 27.1599H13V28.1599H17V27.1599Z" fill="#FFC110"/>
<path d="M19 27.1599H17V28.1599H19V27.1599Z" fill="#FFF671"/>
<path d="M9 3.15991H7V4.15991H9V3.15991ZM24 3.15991H22V4.15991H24V3.15991ZM11 4.15991H7V5.15991H11V4.15991ZM24 4.15991H20V5.15991H24V4.15991ZM8 5.15991H7V6.15991H8V5.15991Z" fill="#1F1D29"/>
<path d="M9 5.15991H8V6.15991H9V5.15991Z" fill="#CAEFF9"/>
<path d="M13 5.15991H9V6.15991H13V5.15991ZM22 5.15991H18V6.15991H22V5.15991Z" fill="#1F1D29"/>
<path d="M23 5.15991H22V6.15991H23V5.15991Z" fill="#CAEFF9"/>
<path d="M24 5.15991H23V6.15991H24V5.15991ZM8 6.15991H7V7.15991H8V6.15991Z" fill="#1F1D29"/>
<path d="M11 6.15991H8V7.15991H11V6.15991Z" fill="#CAEFF9"/>
<path d="M13 6.15991H11V7.15991H13V6.15991ZM20 6.15991H18V7.15991H20V6.15991Z" fill="#1F1D29"/>
<path d="M23 6.15991H20V7.15991H23V6.15991Z" fill="#CAEFF9"/>
<path d="M24 6.15991H23V7.15991H24V6.15991ZM8 7.15991H7V8.15991H8V7.15991Z" fill="#1F1D29"/>
<path d="M12 7.15991H8V8.15991H12V7.15991Z" fill="#CAEFF9"/>
<path d="M19 7.15991H12V8.15991H19V7.15991Z" fill="#1F1D29"/>
<path d="M23 7.15991H19V8.15991H23V7.15991Z" fill="#CAEFF9"/>
<path d="M24 7.15991H23V8.15991H24V7.15991ZM8 8.15991H7V9.15991H8V8.15991Z" fill="#1F1D29"/>
<path d="M11 8.15991H8V9.15991H11V8.15991Z" fill="#CAEFF9"/>
<path d="M20 8.15991H11V9.15991H20V8.15991Z" fill="#1F1D29"/>
<path d="M23 8.15991H20V9.15991H23V8.15991Z" fill="#CAEFF9"/>
<path d="M24 8.15991H23V9.15991H24V8.15991ZM8 9.15991H7V10.1599H8V9.15991Z" fill="#1F1D29"/>
<path d="M9 9.15991H8V10.1599H9V9.15991Z" fill="#CAEFF9"/>
<path d="M22 9.15991H9V10.1599H22V9.15991Z" fill="#1F1D29"/>
<path d="M23 9.15991H22V10.1599H23V9.15991Z" fill="#CAEFF9"/>
<path d="M24 9.15991H23V10.1599H24V9.15991ZM24 10.1599H7V11.1599H24V10.1599ZM24 11.1599H8V12.1599H24V11.1599ZM24 12.1599H8V13.1599H24V12.1599ZM24 13.1599H8V14.1599H24V13.1599ZM24 14.1599H8V15.1599H24V14.1599ZM24 15.1599H8V16.1599H24V15.1599ZM24 16.1599H8V17.1599H24V16.1599Z" fill="#1F1D29"/>
<path d="M11 17.1599H6V18.1599H11V17.1599Z" fill="#7CC4F2"/>
<path d="M16 17.1599H11V18.1599H16V17.1599Z" fill="#CAEFF9"/>
<path d="M18 17.1599H16V18.1599H18V17.1599Z" fill="#FA6FE2"/>
<path d="M22 17.1599H18V18.1599H22V17.1599Z" fill="#CAEFF9"/>
<path d="M26 17.1599H22V18.1599H26V17.1599Z" fill="#7CC4F2"/>
<path d="M16 18.1599H8V19.1599H16V18.1599Z" fill="#CAEFF9"/>
<path d="M17 18.1599H16V19.1599H17V18.1599Z" fill="#5A6B7B"/>
<path d="M24 18.1599H17V19.1599H24V18.1599Z" fill="#CAEFF9"/>
<path d="M11 19.1599H6V20.1599H11V19.1599Z" fill="#7CC4F2"/>
<path d="M14 19.1599H11V20.1599H14V19.1599Z" fill="#CAEFF9"/>
<path d="M18 19.1599H14V20.1599H18V19.1599Z" fill="#5A6B7B"/>
<path d="M22 19.1599H18V20.1599H22V19.1599Z" fill="#CAEFF9"/>
<path d="M26 19.1599H22V20.1599H26V19.1599Z" fill="#7CC4F2"/>
<path d="M24 20.1599H8V21.1599H24V20.1599Z" fill="#CAEFF9"/>
<path d="M16 11.1599H10V12.1599H16V11.1599ZM23 11.1599H17V12.1599H23V11.1599ZM11 12.1599H10V13.1599H11V12.1599Z" fill="#D19A54"/>
<path d="M13 12.1599H11V13.1599H13V12.1599Z" fill="white"/>
<path d="M15 12.1599H13V13.1599H15V12.1599Z" fill="black"/>
<path d="M16 12.1599H15V13.1599H16V12.1599ZM18 12.1599H17V13.1599H18V12.1599Z" fill="#D19A54"/>
<path d="M20 12.1599H18V13.1599H20V12.1599Z" fill="white"/>
<path d="M22 12.1599H20V13.1599H22V12.1599Z" fill="black"/>
<path d="M23 12.1599H22V13.1599H23V12.1599ZM11 13.1599H7V14.1599H11V13.1599Z" fill="#D19A54"/>
<path d="M13 13.1599H11V14.1599H13V13.1599Z" fill="white"/>
<path d="M15 13.1599H13V14.1599H15V13.1599Z" fill="black"/>
<path d="M18 13.1599H15V14.1599H18V13.1599Z" fill="#D19A54"/>
<path d="M20 13.1599H18V14.1599H20V13.1599Z" fill="white"/>
<path d="M22 13.1599H20V14.1599H22V13.1599Z" fill="black"/>
<path d="M23 13.1599H22V14.1599H23V13.1599ZM8 14.1599H7V15.1599H8V14.1599ZM11 14.1599H10V15.1599H11V14.1599Z" fill="#D19A54"/>
<path d="M13 14.1599H11V15.1599H13V14.1599Z" fill="white"/>
<path d="M15 14.1599H13V15.1599H15V14.1599Z" fill="black"/>
<path d="M16 14.1599H15V15.1599H16V14.1599ZM18 14.1599H17V15.1599H18V14.1599Z" fill="#D19A54"/>
<path d="M20 14.1599H18V15.1599H20V14.1599Z" fill="white"/>
<path d="M22 14.1599H20V15.1599H22V14.1599Z" fill="black"/>
<path d="M23 14.1599H22V15.1599H23V14.1599ZM8 15.1599H7V16.1599H8V15.1599ZM11 15.1599H10V16.1599H11V15.1599Z" fill="#D19A54"/>
<path d="M13 15.1599H11V16.1599H13V15.1599Z" fill="white"/>
<path d="M15 15.1599H13V16.1599H15V15.1599Z" fill="black"/>
<path d="M16 15.1599H15V16.1599H16V15.1599ZM18 15.1599H17V16.1599H18V15.1599Z" fill="#D19A54"/>
<path d="M20 15.1599H18V16.1599H20V15.1599Z" fill="white"/>
<path d="M22 15.1599H20V16.1599H22V15.1599Z" fill="black"/>
<path d="M23 15.1599H22V16.1599H23V15.1599ZM16 16.1599H10V17.1599H16V16.1599ZM23 16.1599H17V17.1599H23V16.1599Z" fill="#D19A54"/>
</svg>
