<svg width="32" height="33" viewBox="0 0 32 33" fill="none" xmlns="http://www.w3.org/2000/svg">
<path d="M0 0.379883H32V32.3799H0V0.379883Z" fill="#DFD7D5"/>
<path d="M0.1 0.379883H0V0.479883H0.1V0.379883Z" fill="#E1D7D5"/>
<path d="M23 21.3799H9V22.3799H23V21.3799ZM23 22.3799H9V23.3799H23V22.3799ZM23 23.3799H9V24.3799H23V23.3799ZM23 24.3799H9V25.3799H23V24.3799ZM11 25.3799H9V26.3799H11V25.3799ZM23 25.3799H12V26.3799H23V25.3799ZM11 26.3799H9V27.3799H11V26.3799ZM23 26.3799H12V27.3799H23V26.3799ZM11 27.3799H9V28.3799H11V27.3799ZM23 27.3799H12V28.3799H23V27.3799ZM11 28.3799H9V29.3799H11V28.3799ZM23 28.3799H12V29.3799H23V28.3799ZM11 29.3799H9V30.3799H11V29.3799ZM23 29.3799H12V30.3799H23V29.3799ZM11 30.3799H9V31.3799H11V30.3799ZM23 30.3799H12V31.3799H23V30.3799ZM11 31.3799H9V32.3799H11V31.3799ZM23 31.3799H12V32.3799H23V31.3799Z" fill="#9F21A0"/>
<path d="M19 24.3799H18V25.3799H19V24.3799ZM17 25.3799H14V26.3799H17V25.3799Z" fill="#FFF0EE"/>
<path d="M18 25.3799H17V26.3799H18V25.3799Z" fill="black"/>
<path d="M19 25.3799H18V26.3799H19V25.3799Z" fill="#FFF0EE"/>
<path d="M20 25.3799H19V26.3799H20V25.3799Z" fill="#F38B7C"/>
<path d="M14 26.3799H13V27.3799H14V26.3799ZM16 26.3799H15V27.3799H16V26.3799Z" fill="#FFF0EE"/>
<path d="M17 26.3799H16V27.3799H17V26.3799Z" fill="black"/>
<path d="M19 26.3799H17V27.3799H19V26.3799ZM14 27.3799H13V28.3799H14V27.3799ZM16 27.3799H15V28.3799H16V27.3799Z" fill="#FFF0EE"/>
<path d="M18 27.3799H16V28.3799H18V27.3799Z" fill="#F38B7C"/>
<path d="M19 27.3799H18V28.3799H19V27.3799ZM16 28.3799H15V29.3799H16V28.3799ZM19 28.3799H18V29.3799H19V28.3799Z" fill="#FFF0EE"/>
<path d="M14 3.37988H13V4.37988H14V3.37988ZM18 3.37988H15V4.37988H18V3.37988ZM19 4.37988H12V5.37988H19V4.37988ZM19 5.37988H11V6.37988H19V5.37988Z" fill="#E11833"/>
<path d="M12 6.37988H10V7.37988H12V6.37988Z" fill="#F9F4E6"/>
<path d="M19 6.37988H12V7.37988H19V6.37988Z" fill="#E11833"/>
<path d="M22 6.37988H19V7.37988H22V6.37988ZM15 7.37988H9V8.37988H15V7.37988Z" fill="#F9F4E6"/>
<path d="M19 7.37988H15V8.37988H19V7.37988Z" fill="#E11833"/>
<path d="M23 7.37988H19V8.37988H23V7.37988ZM18 8.37988H9V9.37988H18V8.37988Z" fill="#F9F4E6"/>
<path d="M19 8.37988H18V9.37988H19V8.37988Z" fill="#E11833"/>
<path d="M23 8.37988H19V9.37988H23V8.37988ZM24 9.37988H8V10.3799H24V9.37988ZM24 10.3799H8V11.3799H24V10.3799ZM24 11.3799H8V12.3799H24V11.3799ZM24 12.3799H8V13.3799H24V12.3799ZM24 13.3799H8V14.3799H24V13.3799ZM24 14.3799H8V15.3799H24V14.3799ZM24 15.3799H8V16.3799H24V15.3799ZM24 16.3799H8V17.3799H24V16.3799ZM16 17.3799H8V18.3799H16V17.3799Z" fill="#F9F4E6"/>
<path d="M20 17.3799H16V18.3799H20V17.3799Z" fill="#F98F30"/>
<path d="M24 17.3799H20V18.3799H24V17.3799ZM16 18.3799H8V19.3799H16V18.3799Z" fill="#F9F4E6"/>
<path d="M22 18.3799H16V19.3799H22V18.3799Z" fill="#F98F30"/>
<path d="M24 18.3799H22V19.3799H24V18.3799ZM16 19.3799H8V20.3799H16V19.3799Z" fill="#F9F4E6"/>
<path d="M20 19.3799H16V20.3799H20V19.3799Z" fill="#E11833"/>
<path d="M24 19.3799H20V20.3799H24V19.3799ZM16 20.3799H8V21.3799H16V20.3799Z" fill="#F9F4E6"/>
<path d="M20 20.3799H16V21.3799H20V20.3799Z" fill="#E11833"/>
<path d="M24 20.3799H20V21.3799H24V20.3799Z" fill="#F9F4E6"/>
<path d="M16 11.3799H10V12.3799H16V11.3799ZM23 11.3799H17V12.3799H23V11.3799ZM11 12.3799H10V13.3799H11V12.3799Z" fill="#F3322C"/>
<path d="M13 12.3799H11V13.3799H13V12.3799Z" fill="white"/>
<path d="M15 12.3799H13V13.3799H15V12.3799Z" fill="black"/>
<path d="M16 12.3799H15V13.3799H16V12.3799ZM18 12.3799H17V13.3799H18V12.3799Z" fill="#F3322C"/>
<path d="M20 12.3799H18V13.3799H20V12.3799Z" fill="white"/>
<path d="M22 12.3799H20V13.3799H22V12.3799Z" fill="black"/>
<path d="M23 12.3799H22V13.3799H23V12.3799ZM11 13.3799H7V14.3799H11V13.3799Z" fill="#F3322C"/>
<path d="M13 13.3799H11V14.3799H13V13.3799Z" fill="white"/>
<path d="M15 13.3799H13V14.3799H15V13.3799Z" fill="black"/>
<path d="M18 13.3799H15V14.3799H18V13.3799Z" fill="#F3322C"/>
<path d="M20 13.3799H18V14.3799H20V13.3799Z" fill="white"/>
<path d="M22 13.3799H20V14.3799H22V13.3799Z" fill="black"/>
<path d="M23 13.3799H22V14.3799H23V13.3799ZM8 14.3799H7V15.3799H8V14.3799ZM11 14.3799H10V15.3799H11V14.3799Z" fill="#F3322C"/>
<path d="M13 14.3799H11V15.3799H13V14.3799Z" fill="white"/>
<path d="M15 14.3799H13V15.3799H15V14.3799Z" fill="black"/>
<path d="M16 14.3799H15V15.3799H16V14.3799ZM18 14.3799H17V15.3799H18V14.3799Z" fill="#F3322C"/>
<path d="M20 14.3799H18V15.3799H20V14.3799Z" fill="white"/>
<path d="M22 14.3799H20V15.3799H22V14.3799Z" fill="black"/>
<path d="M23 14.3799H22V15.3799H23V14.3799ZM8 15.3799H7V16.3799H8V15.3799ZM11 15.3799H10V16.3799H11V15.3799Z" fill="#F3322C"/>
<path d="M13 15.3799H11V16.3799H13V15.3799Z" fill="white"/>
<path d="M15 15.3799H13V16.3799H15V15.3799Z" fill="black"/>
<path d="M16 15.3799H15V16.3799H16V15.3799ZM18 15.3799H17V16.3799H18V15.3799Z" fill="#F3322C"/>
<path d="M20 15.3799H18V16.3799H20V15.3799Z" fill="white"/>
<path d="M22 15.3799H20V16.3799H22V15.3799Z" fill="black"/>
<path d="M23 15.3799H22V16.3799H23V15.3799ZM16 16.3799H10V17.3799H16V16.3799ZM23 16.3799H17V17.3799H23V16.3799Z" fill="#F3322C"/>
</svg>
