<svg width="6002" height="1621" viewBox="0 0 6002 1621" fill="none" xmlns="http://www.w3.org/2000/svg">
<path d="M201 1L1 1101" stroke="black" stroke-opacity="0.16" stroke-width="0.67"/>
<path d="M201 1L1 1101" stroke="#EF5A3C" stroke-opacity="0.11" stroke-dasharray="0.01 1"/>
<path d="M201 1L1 1101" stroke="#EF5A3C" stroke-opacity="0.224" stroke-dasharray="0.01 1"/>
<path d="M201 1L1 1101" stroke="#EF5A3C" stroke-opacity="0.333" stroke-dasharray="0.01 1"/>
<path d="M201 1L1 1101" stroke="#EF5A3C" stroke-opacity="0.443" stroke-dasharray="0.01 1"/>
<path d="M201 1L1 1101" stroke="#EF5A3C" stroke-opacity="0.557" stroke-dasharray="0.01 1"/>
<path d="M201 1L1 1101" stroke="#EF5A3C" stroke-opacity="0.667" stroke-dasharray="0.01 1"/>
<path d="M201 1L1 1101" stroke="#EF5A3C" stroke-opacity="0.776" stroke-dasharray="0.01 1"/>
<path d="M201 1L1 1101" stroke="#EF5A3C" stroke-opacity="0.89" stroke-dasharray="0.01 1"/>
<path d="M701 1L1 1101" stroke="black" stroke-opacity="0.16" stroke-width="0.67" stroke-dasharray="5 5"/>
<path d="M2001 1L1 1101" stroke="black" stroke-opacity="0.16" stroke-width="0.67"/>
<path d="M6001 1L1 1101" stroke="black" stroke-opacity="0.16" stroke-width="0.67" stroke-dasharray="5 5"/>
<path d="M1 1L2001 601" stroke="black" stroke-opacity="0.16" stroke-width="0.67" stroke-dasharray="5 5"/>
<path d="M301 1L2001 471" stroke="black" stroke-opacity="0.16" stroke-width="0.67" stroke-dasharray="5 5"/>
<path d="M21 1V1101" stroke="black" stroke-opacity="0.06" stroke-width="0.67"/>
<path d="M41 1V1101" stroke="black" stroke-opacity="0.06" stroke-width="0.67"/>
<path d="M61 1V1101" stroke="black" stroke-opacity="0.06" stroke-width="0.67"/>
<path d="M81 1V1101" stroke="black" stroke-opacity="0.06" stroke-width="0.67"/>
<path d="M101 1V1101" stroke="black" stroke-opacity="0.06" stroke-width="0.67"/>
<path d="M121 1V1101" stroke="black" stroke-opacity="0.06" stroke-width="0.67"/>
<path d="M141 1V1101" stroke="black" stroke-opacity="0.06" stroke-width="0.67"/>
<path d="M161 1V1101" stroke="black" stroke-opacity="0.06" stroke-width="0.67"/>
<path d="M181 1V1101" stroke="black" stroke-opacity="0.06" stroke-width="0.67"/>
<path d="M201 1V1101" stroke="black" stroke-opacity="0.06" stroke-width="0.67"/>
<path d="M221 1V1101" stroke="black" stroke-opacity="0.06" stroke-width="0.67"/>
<path d="M241 1V1101" stroke="black" stroke-opacity="0.06" stroke-width="0.67"/>
<path d="M261 1V1101" stroke="black" stroke-opacity="0.06" stroke-width="0.67"/>
<path d="M281 1V1101" stroke="black" stroke-opacity="0.06" stroke-width="0.67"/>
<path d="M301 1V1101" stroke="black" stroke-opacity="0.06" stroke-width="0.67"/>
<path d="M321 1V1101" stroke="black" stroke-opacity="0.06" stroke-width="0.67"/>
<path d="M341 1V1101" stroke="black" stroke-opacity="0.06" stroke-width="0.67"/>
<path d="M361 1V1101" stroke="black" stroke-opacity="0.06" stroke-width="0.67"/>
<path d="M381 1V1101" stroke="black" stroke-opacity="0.06" stroke-width="0.67"/>
<path d="M401 1V1101" stroke="black" stroke-opacity="0.06" stroke-width="0.67"/>
<path d="M421 1V1101" stroke="black" stroke-opacity="0.06" stroke-width="0.67"/>
<path d="M441 1V1101" stroke="black" stroke-opacity="0.06" stroke-width="0.67"/>
<path d="M461 1V1101" stroke="black" stroke-opacity="0.06" stroke-width="0.67"/>
<path d="M481 1V1101" stroke="black" stroke-opacity="0.06" stroke-width="0.67"/>
<path d="M501 1V1101" stroke="black" stroke-opacity="0.06" stroke-width="0.67"/>
<path d="M521 1V1101" stroke="black" stroke-opacity="0.06" stroke-width="0.67"/>
<path d="M541 1V1101" stroke="black" stroke-opacity="0.06" stroke-width="0.67"/>
<path d="M561 1V1101" stroke="black" stroke-opacity="0.06" stroke-width="0.67"/>
<path d="M581 1V1101" stroke="black" stroke-opacity="0.06" stroke-width="0.67"/>
<path d="M601 1V1101" stroke="black" stroke-opacity="0.06" stroke-width="0.67"/>
<path d="M621 1V1101" stroke="black" stroke-opacity="0.06" stroke-width="0.67"/>
<path d="M641 1V1101" stroke="black" stroke-opacity="0.06" stroke-width="0.67"/>
<path d="M661 1V1101" stroke="black" stroke-opacity="0.06" stroke-width="0.67"/>
<path d="M681 1V1101" stroke="black" stroke-opacity="0.06" stroke-width="0.67"/>
<path d="M701 1V1101" stroke="black" stroke-opacity="0.06" stroke-width="0.67"/>
<path d="M721 1V1101" stroke="black" stroke-opacity="0.06" stroke-width="0.67"/>
<path d="M741 1V1101" stroke="black" stroke-opacity="0.06" stroke-width="0.67"/>
<path d="M761 1V1101" stroke="black" stroke-opacity="0.06" stroke-width="0.67"/>
<path d="M781 1V1101" stroke="black" stroke-opacity="0.06" stroke-width="0.67"/>
<path d="M801 1V1101" stroke="black" stroke-opacity="0.06" stroke-width="0.67"/>
<path d="M821 1V1101" stroke="black" stroke-opacity="0.06" stroke-width="0.67"/>
<path d="M841 1V1101" stroke="black" stroke-opacity="0.06" stroke-width="0.67"/>
<path d="M861 1V1101" stroke="black" stroke-opacity="0.06" stroke-width="0.67"/>
<path d="M881 1V1101" stroke="black" stroke-opacity="0.06" stroke-width="0.67"/>
<path d="M901 1V1101" stroke="black" stroke-opacity="0.06" stroke-width="0.67"/>
<path d="M921 1V1101" stroke="black" stroke-opacity="0.06" stroke-width="0.67"/>
<path d="M941 1V1101" stroke="black" stroke-opacity="0.06" stroke-width="0.67"/>
<path d="M961 1V1101" stroke="black" stroke-opacity="0.06" stroke-width="0.67"/>
<path d="M981 1V1101" stroke="black" stroke-opacity="0.06" stroke-width="0.67"/>
<path d="M1001 1V1101" stroke="black" stroke-opacity="0.06" stroke-width="0.67"/>
<path d="M1021 1V1101" stroke="black" stroke-opacity="0.06" stroke-width="0.67"/>
<path d="M1041 1V1101" stroke="black" stroke-opacity="0.06" stroke-width="0.67"/>
<path d="M1061 1V1101" stroke="black" stroke-opacity="0.06" stroke-width="0.67"/>
<path d="M1081 1V1101" stroke="black" stroke-opacity="0.06" stroke-width="0.67"/>
<path d="M1101 1V1101" stroke="black" stroke-opacity="0.06" stroke-width="0.67"/>
<path d="M1121 1V1101" stroke="black" stroke-opacity="0.06" stroke-width="0.67"/>
<path d="M1141 1V1101" stroke="black" stroke-opacity="0.06" stroke-width="0.67"/>
<path d="M1161 1V1101" stroke="black" stroke-opacity="0.06" stroke-width="0.67"/>
<path d="M1181 1V1101" stroke="black" stroke-opacity="0.06" stroke-width="0.67"/>
<path d="M1201 1V1101" stroke="black" stroke-opacity="0.06" stroke-width="0.67"/>
<path d="M1221 1V1101" stroke="black" stroke-opacity="0.06" stroke-width="0.67"/>
<path d="M1241 1V1101" stroke="black" stroke-opacity="0.06" stroke-width="0.67"/>
<path d="M1261 1V1101" stroke="black" stroke-opacity="0.06" stroke-width="0.67"/>
<path d="M1281 1V1101" stroke="black" stroke-opacity="0.06" stroke-width="0.67"/>
<path d="M1301 1V1101" stroke="black" stroke-opacity="0.06" stroke-width="0.67"/>
<path d="M1321 1V1101" stroke="black" stroke-opacity="0.06" stroke-width="0.67"/>
<path d="M1341 1V1101" stroke="black" stroke-opacity="0.06" stroke-width="0.67"/>
<path d="M1361 1V1101" stroke="black" stroke-opacity="0.06" stroke-width="0.67"/>
<path d="M1381 1V1101" stroke="black" stroke-opacity="0.06" stroke-width="0.67"/>
<path d="M1401 1V1101" stroke="black" stroke-opacity="0.06" stroke-width="0.67"/>
<path d="M1421 1V1101" stroke="black" stroke-opacity="0.06" stroke-width="0.67"/>
<path d="M1441 1V1101" stroke="black" stroke-opacity="0.06" stroke-width="0.67"/>
<path d="M1461 1V1101" stroke="black" stroke-opacity="0.06" stroke-width="0.67"/>
<path d="M1481 1V1101" stroke="black" stroke-opacity="0.06" stroke-width="0.67"/>
<path d="M1501 1V1101" stroke="black" stroke-opacity="0.06" stroke-width="0.67"/>
<path d="M1521 1V1101" stroke="black" stroke-opacity="0.06" stroke-width="0.67"/>
<path d="M1541 1V1101" stroke="black" stroke-opacity="0.06" stroke-width="0.67"/>
<path d="M1561 1V1101" stroke="black" stroke-opacity="0.06" stroke-width="0.67"/>
<path d="M1581 1V1101" stroke="black" stroke-opacity="0.06" stroke-width="0.67"/>
<path d="M1601 1V1101" stroke="black" stroke-opacity="0.06" stroke-width="0.67"/>
<path d="M1621 1V1101" stroke="black" stroke-opacity="0.06" stroke-width="0.67"/>
<path d="M1641 1V1101" stroke="black" stroke-opacity="0.06" stroke-width="0.67"/>
<path d="M1661 1V1101" stroke="black" stroke-opacity="0.06" stroke-width="0.67"/>
<path d="M1681 1V1101" stroke="black" stroke-opacity="0.06" stroke-width="0.67"/>
<path d="M1701 1V1101" stroke="black" stroke-opacity="0.06" stroke-width="0.67"/>
<path d="M1721 1V1101" stroke="black" stroke-opacity="0.06" stroke-width="0.67"/>
<path d="M1741 1V1101" stroke="black" stroke-opacity="0.06" stroke-width="0.67"/>
<path d="M1761 1V1101" stroke="black" stroke-opacity="0.06" stroke-width="0.67"/>
<path d="M1781 1V1101" stroke="black" stroke-opacity="0.06" stroke-width="0.67"/>
<path d="M1801 1V1101" stroke="black" stroke-opacity="0.06" stroke-width="0.67"/>
<path d="M1821 1V1101" stroke="black" stroke-opacity="0.06" stroke-width="0.67"/>
<path d="M1841 1V1101" stroke="black" stroke-opacity="0.06" stroke-width="0.67"/>
<path d="M1861 1V1101" stroke="black" stroke-opacity="0.06" stroke-width="0.67"/>
<path d="M1881 1V1101" stroke="black" stroke-opacity="0.06" stroke-width="0.67"/>
<path d="M1901 1V1101" stroke="black" stroke-opacity="0.06" stroke-width="0.67"/>
<path d="M1921 1V1101" stroke="black" stroke-opacity="0.06" stroke-width="0.67"/>
<path d="M1941 1V1101" stroke="black" stroke-opacity="0.06" stroke-width="0.67"/>
<path d="M1961 1V1101" stroke="black" stroke-opacity="0.06" stroke-width="0.67"/>
<path d="M1981 1V1101" stroke="black" stroke-opacity="0.06" stroke-width="0.67"/>
<path d="M2001 1V1101" stroke="black" stroke-opacity="0.06" stroke-width="0.67"/>
<path d="M1421 1V1101" stroke="#CF74A2" stroke-opacity="0.11" stroke-dasharray="0.01 1"/>
<path d="M1421 1V1101" stroke="#CF74A2" stroke-opacity="0.224" stroke-dasharray="0.01 1"/>
<path d="M1421 1V1101" stroke="#CF74A2" stroke-opacity="0.333" stroke-dasharray="0.01 1"/>
<path d="M1421 1V1101" stroke="#CF74A2" stroke-opacity="0.443" stroke-dasharray="0.01 1"/>
<path d="M1421 1V1101" stroke="#CF74A2" stroke-opacity="0.557" stroke-dasharray="0.01 1"/>
<path d="M1421 1V1101" stroke="#CF74A2" stroke-opacity="0.667" stroke-dasharray="0.01 1"/>
<path d="M1421 1V1101" stroke="#CF74A2" stroke-opacity="0.776" stroke-dasharray="0.01 1"/>
<path d="M1421 1V1101" stroke="#CF74A2" stroke-opacity="0.89" stroke-dasharray="0.01 1"/>
<path d="M1 21H2001" stroke="black" stroke-opacity="0.06" stroke-width="0.67"/>
<path d="M1 41H2001" stroke="black" stroke-opacity="0.06" stroke-width="0.67"/>
<path d="M1 61H2001" stroke="black" stroke-opacity="0.06" stroke-width="0.67"/>
<path d="M1 81H2001" stroke="black" stroke-opacity="0.06" stroke-width="0.67"/>
<path d="M1 101H2001" stroke="black" stroke-opacity="0.06" stroke-width="0.67"/>
<path d="M1 121H2001" stroke="black" stroke-opacity="0.06" stroke-width="0.67"/>
<path d="M1 141H2001" stroke="black" stroke-opacity="0.06" stroke-width="0.67"/>
<path d="M1 161H2001" stroke="black" stroke-opacity="0.06" stroke-width="0.67"/>
<path d="M1 181H2001" stroke="black" stroke-opacity="0.06" stroke-width="0.67"/>
<path d="M1 201H2001" stroke="black" stroke-opacity="0.06" stroke-width="0.67"/>
<path d="M1 221H2001" stroke="black" stroke-opacity="0.06" stroke-width="0.67"/>
<path d="M1 241H2001" stroke="black" stroke-opacity="0.06" stroke-width="0.67"/>
<path d="M1 261H2001" stroke="black" stroke-opacity="0.06" stroke-width="0.67"/>
<path d="M1 281H2001" stroke="black" stroke-opacity="0.06" stroke-width="0.67"/>
<path d="M1 301H2001" stroke="black" stroke-opacity="0.06" stroke-width="0.67"/>
<path d="M1 321H2001" stroke="black" stroke-opacity="0.06" stroke-width="0.67"/>
<path d="M1 341H2001" stroke="black" stroke-opacity="0.06" stroke-width="0.67"/>
<path d="M1 361H2001" stroke="black" stroke-opacity="0.06" stroke-width="0.67"/>
<path d="M1 381H2001" stroke="black" stroke-opacity="0.06" stroke-width="0.67"/>
<path d="M1 401H2001" stroke="black" stroke-opacity="0.06" stroke-width="0.67"/>
<path d="M1 421H2001" stroke="black" stroke-opacity="0.06" stroke-width="0.67"/>
<path d="M1 441H2001" stroke="black" stroke-opacity="0.06" stroke-width="0.67"/>
<path d="M1 461H2001" stroke="black" stroke-opacity="0.06" stroke-width="0.67"/>
<path d="M1 481H2001" stroke="black" stroke-opacity="0.06" stroke-width="0.67"/>
<path d="M1 501H2001" stroke="black" stroke-opacity="0.06" stroke-width="0.67"/>
<path d="M1 521H2001" stroke="black" stroke-opacity="0.06" stroke-width="0.67"/>
<path d="M1 541H2001" stroke="black" stroke-opacity="0.06" stroke-width="0.67"/>
<path d="M1 561H2001" stroke="black" stroke-opacity="0.06" stroke-width="0.67"/>
<path d="M1 581H2001" stroke="black" stroke-opacity="0.06" stroke-width="0.67"/>
<path d="M1 601H2001" stroke="black" stroke-opacity="0.06" stroke-width="0.67"/>
<path d="M1 621H2001" stroke="black" stroke-opacity="0.06" stroke-width="0.67"/>
<path d="M1 641H2001" stroke="black" stroke-opacity="0.06" stroke-width="0.67"/>
<path d="M1 661H2001" stroke="black" stroke-opacity="0.06" stroke-width="0.67"/>
<path d="M1 681H2001" stroke="black" stroke-opacity="0.06" stroke-width="0.67"/>
<path d="M1 701H2001" stroke="black" stroke-opacity="0.06" stroke-width="0.67"/>
<path d="M1 721H2001" stroke="black" stroke-opacity="0.06" stroke-width="0.67"/>
<path d="M1 741H2001" stroke="black" stroke-opacity="0.06" stroke-width="0.67"/>
<path d="M1 761H2001" stroke="black" stroke-opacity="0.06" stroke-width="0.67"/>
<path d="M1 781H2001" stroke="black" stroke-opacity="0.06" stroke-width="0.67"/>
<path d="M1 801H2001" stroke="black" stroke-opacity="0.06" stroke-width="0.67"/>
<path d="M1 821H2001" stroke="black" stroke-opacity="0.06" stroke-width="0.67"/>
<path d="M1 841H2001" stroke="black" stroke-opacity="0.06" stroke-width="0.67"/>
<path d="M1 861H2001" stroke="black" stroke-opacity="0.06" stroke-width="0.67"/>
<path d="M1 881H2001" stroke="black" stroke-opacity="0.06" stroke-width="0.67"/>
<path d="M1 901H2001" stroke="black" stroke-opacity="0.06" stroke-width="0.67"/>
<path d="M1 921H2001" stroke="black" stroke-opacity="0.06" stroke-width="0.67"/>
<path d="M1 941H2001" stroke="black" stroke-opacity="0.06" stroke-width="0.67"/>
<path d="M1 961H2001" stroke="black" stroke-opacity="0.06" stroke-width="0.67"/>
<path d="M1 981H2001" stroke="black" stroke-opacity="0.06" stroke-width="0.67"/>
<path d="M1 1001H2001" stroke="black" stroke-opacity="0.06" stroke-width="0.67"/>
<path d="M1 1021H2001" stroke="black" stroke-opacity="0.06" stroke-width="0.67"/>
<path d="M1 1041H2001" stroke="black" stroke-opacity="0.06" stroke-width="0.67"/>
<path d="M1 1061H2001" stroke="black" stroke-opacity="0.06" stroke-width="0.67"/>
<path d="M1 1081H2001" stroke="black" stroke-opacity="0.06" stroke-width="0.67"/>
<path d="M1 101H2001" stroke="#0CA063" stroke-dasharray="0.01 1"/>
<path d="M1 101H2001" stroke="#0CA063" stroke-opacity="0.89" stroke-dasharray="0.01 1"/>
<path d="M1 101H2001" stroke="#0CA063" stroke-opacity="0.776" stroke-dasharray="0.01 1"/>
<path d="M1 101H2001" stroke="#0CA063" stroke-opacity="0.667" stroke-dasharray="0.01 1"/>
<path d="M1 101H2001" stroke="#0CA063" stroke-opacity="0.557" stroke-dasharray="0.01 1"/>
<path d="M1 101H2001" stroke="#0CA063" stroke-opacity="0.443" stroke-dasharray="0.01 1"/>
<path d="M1 101H2001" stroke="#0CA063" stroke-opacity="0.333" stroke-dasharray="0.01 1"/>
<path d="M1 101H2001" stroke="#0CA063" stroke-opacity="0.224" stroke-dasharray="0.01 1"/>
<path d="M1 101H2001" stroke="#0CA063" stroke-opacity="0.11" stroke-dasharray="0.01 1"/>
<path d="M1 401H2001" stroke="#2797CF" stroke-opacity="0.11" stroke-dasharray="0.01 1"/>
<path d="M1 401H2001" stroke="#2797CF" stroke-opacity="0.224" stroke-dasharray="0.01 1"/>
<path d="M1 401H2001" stroke="#2797CF" stroke-opacity="0.333" stroke-dasharray="0.01 1"/>
<path d="M1 401H2001" stroke="#2797CF" stroke-opacity="0.443" stroke-dasharray="0.01 1"/>
<path d="M1 401H2001" stroke="#2797CF" stroke-opacity="0.557" stroke-dasharray="0.01 1"/>
<path d="M1 401H2001" stroke="#2797CF" stroke-opacity="0.667" stroke-dasharray="0.01 1"/>
<path d="M1 401H2001" stroke="#2797CF" stroke-opacity="0.776" stroke-dasharray="0.01 1"/>
<path d="M1 401H2001" stroke="#2797CF" stroke-opacity="0.89" stroke-dasharray="0.01 1"/>
</svg>
