<svg width="40" height="40" viewBox="0 0 40 40" fill="none" xmlns="http://www.w3.org/2000/svg">
<g clip-path="url(#clip0_1_906)">
<g clip-path="url(#clip1_1_906)">
<mask id="mask0_1_906" style="mask-type:luminance" maskUnits="userSpaceOnUse" x="0" y="0" width="40" height="40">
<path d="M39.8885 0.0772705H0.0429688V39.9228H39.8885V0.0772705Z" fill="white"/>
</mask>
<g mask="url(#mask0_1_906)">
<path d="M0.0429688 8.72592C0.0429688 3.94941 3.91511 0.0772705 8.69162 0.0772705H31.2398C36.0163 0.0772705 39.8884 3.94941 39.8884 8.72592V17.9247V31.274C39.8884 36.0505 36.0163 39.9228 31.2398 39.9228H8.69162C3.91511 39.9228 0.0429688 36.0506 0.0429688 31.2742V8.72592Z" fill="#FFFFFE"/>
<path d="M22.043 0.0773926H31.2408C36.0173 0.0773926 39.8895 3.94953 39.8895 8.72604V17.9248H25.7495C23.7024 17.9248 22.043 16.2653 22.043 14.2182V0.0773926Z" fill="#EF5A3C"/>
<path d="M22.043 0.0773926L39.8904 17.9249H24.889C23.3171 17.9249 22.043 16.6506 22.043 15.0787V0.0773926Z" fill="white"/>
<path d="M22.965 0.0784912L39.8867 17.0078V17.957L22.0352 0.0784912H22.965Z" fill="#C24228"/>
<path fill-rule="evenodd" clip-rule="evenodd" d="M0.0703125 28.6299V31.3323C0.0703125 36.1088 3.94245 39.9809 8.71896 39.9809H31.2673C36.0438 39.9809 39.9159 36.1088 39.9159 31.3323V28.6299C39.9159 33.4064 36.0438 37.2785 31.2673 37.2785H8.71896C3.94245 37.2785 0.0703125 33.4064 0.0703125 28.6299Z" fill="#CCCCCB"/>
<path fill-rule="evenodd" clip-rule="evenodd" d="M8.71896 0.135376C3.94244 0.135376 0.0703125 4.00751 0.0703125 8.78402V9.01196C0.537406 4.67614 4.20886 1.30028 8.66879 1.30028H31.2672C36.0438 1.30028 39.9159 5.1724 39.9159 9.94893V8.78402C39.9159 4.00751 36.0438 0.135376 31.2672 0.135376H8.71896Z" fill="white" fill-opacity="0.3"/>
<path fill-rule="evenodd" clip-rule="evenodd" d="M21.9756 0.0786133V15.094C21.9756 16.6719 23.2548 17.9511 24.8328 17.9511H39.9446V19.0322H24.8328C22.6578 19.0322 20.8945 17.269 20.8945 15.094V0.0786133H21.9756Z" fill="#CCCCCB"/>
</g>
</g>
</g>
<defs>
<clipPath id="clip0_1_906">
<rect width="40" height="40" fill="white"/>
</clipPath>
<clipPath id="clip1_1_906">
<rect width="40" height="39.8456" fill="white" transform="translate(0 0.0772705)"/>
</clipPath>
</defs>
</svg>
