<svg width="40" height="40" viewBox="0 0 40 40" fill="none" xmlns="http://www.w3.org/2000/svg">
<g clip-path="url(#clip0_1_750)">
<g clip-path="url(#clip1_1_750)">
<g clip-path="url(#clip2_1_750)">
<mask id="mask0_1_750" style="mask-type:luminance" maskUnits="userSpaceOnUse" x="0" y="0" width="40" height="40">
<path d="M31.2477 0.0772705H8.69943C3.92291 0.0772705 0.0507812 3.9494 0.0507812 8.72592V31.2742C0.0507812 36.0507 3.92291 39.9228 8.69943 39.9228H31.2477C36.0242 39.9228 39.8963 36.0507 39.8963 31.2742V8.72592C39.8963 3.9494 36.0242 0.0772705 31.2477 0.0772705Z" fill="white"/>
</mask>
<g mask="url(#mask0_1_750)">
<path d="M0.0507812 8.72592C0.0507812 3.94941 3.92292 0.0772705 8.69943 0.0772705H31.2476C36.0241 0.0772705 39.8962 3.94941 39.8962 8.72592V17.9247V31.274C39.8962 36.0505 36.0241 39.9228 31.2476 39.9228H8.69943C3.92292 39.9228 0.0507812 36.0506 0.0507812 31.2742V8.72592Z" fill="#00A05E"/>
<g filter="url(#filter0_d_1_750)">
<path d="M0.0507851 29.3389H39.4812" stroke="#00804B" stroke-width="0.830114" stroke-linecap="round"/>
</g>
<path d="M4.2024 15.2028H4.2024C4.7888 15.2028 5.26418 15.6781 5.26418 16.2645V24.1506C5.26418 24.737 4.7888 25.2124 4.2024 25.2124H4.2024C3.616 25.2124 3.14062 24.737 3.14062 24.1506V16.2645C3.14062 15.6781 3.616 15.2028 4.2024 15.2028Z" stroke="#19C77F" stroke-width="0.46332"/>
<path d="M3.37127 16.2646C3.37127 15.8061 3.74294 15.4344 4.20139 15.4344C4.65986 15.4344 5.03151 15.8061 5.03151 16.2646V24.1507C5.03151 24.6092 4.65986 24.9808 4.20139 24.9808C3.74294 24.9808 3.37127 24.6092 3.37127 24.1507V16.2646Z" fill="black" fill-opacity="0.5"/>
<mask id="mask1_1_750" style="mask-type:luminance" maskUnits="userSpaceOnUse" x="3" y="15" width="3" height="10">
<path d="M3.37127 16.2646C3.37127 15.8061 3.74294 15.4344 4.20139 15.4344C4.65986 15.4344 5.03151 15.8061 5.03151 16.2646V24.1507C5.03151 24.6092 4.65986 24.9808 4.20139 24.9808C3.74294 24.9808 3.37127 24.6092 3.37127 24.1507V16.2646Z" fill="white"/>
</mask>
<g mask="url(#mask1_1_750)">
<path d="M3.06268 16.2647C3.06268 15.6356 3.57263 15.1256 4.20168 15.1256C4.83073 15.1256 5.34067 15.6356 5.34067 16.2647H4.72291C4.72291 15.9768 4.48955 15.7434 4.20168 15.7434C3.91382 15.7434 3.68044 15.9768 3.68044 16.2647H3.06268ZM5.34067 24.1507C5.34067 24.7797 4.83073 25.2897 4.20168 25.2897C3.57263 25.2897 3.06268 24.7797 3.06268 24.1507H3.68044C3.68044 24.4386 3.91382 24.6719 4.20168 24.6719C4.48955 24.6719 4.72291 24.4386 4.72291 24.1507H5.34067ZM4.20168 25.2897C3.57263 25.2897 3.06268 24.7797 3.06268 24.1507V16.2647C3.06268 15.6356 3.57263 15.1256 4.20168 15.1256V15.7434C3.91382 15.7434 3.68044 15.9768 3.68044 16.2647V24.1507C3.68044 24.4386 3.91382 24.6719 4.20168 24.6719V25.2897ZM4.20168 15.1256C4.83073 15.1256 5.34067 15.6356 5.34067 16.2647V24.1507C5.34067 24.7797 4.83073 25.2897 4.20168 25.2897V24.6719C4.48955 24.6719 4.72291 24.4386 4.72291 24.1507V16.2647C4.72291 15.9768 4.48955 15.7434 4.20168 15.7434V15.1256Z" fill="#1B271D"/>
</g>
<path d="M7.56177 15.2028H7.56178C8.14818 15.2028 8.62355 15.6781 8.62355 16.2645V24.1506C8.62355 24.737 8.14818 25.2124 7.56178 25.2124H7.56177C6.97537 25.2124 6.5 24.737 6.5 24.1506V16.2645C6.5 15.6781 6.97537 15.2028 7.56177 15.2028Z" stroke="#19C77F" stroke-width="0.46332"/>
<path d="M6.73035 16.2646C6.73035 15.8061 7.10201 15.4344 7.56046 15.4344C8.01892 15.4344 8.39058 15.8061 8.39058 16.2646V24.1507C8.39058 24.6092 8.01892 24.9808 7.56046 24.9808C7.10201 24.9808 6.73035 24.6092 6.73035 24.1507V16.2646Z" fill="black" fill-opacity="0.5"/>
<mask id="mask2_1_750" style="mask-type:luminance" maskUnits="userSpaceOnUse" x="6" y="15" width="3" height="10">
<path d="M6.73035 16.2646C6.73035 15.8061 7.10201 15.4344 7.56046 15.4344C8.01892 15.4344 8.39058 15.8061 8.39058 16.2646V24.1507C8.39058 24.6092 8.01892 24.9808 7.56046 24.9808C7.10201 24.9808 6.73035 24.6092 6.73035 24.1507V16.2646Z" fill="white"/>
</mask>
<g mask="url(#mask2_1_750)">
<path d="M6.42175 16.2647C6.42175 15.6356 6.9317 15.1256 7.56075 15.1256C8.1898 15.1256 8.69975 15.6356 8.69975 16.2647H8.08199C8.08199 15.9768 7.84863 15.7434 7.56075 15.7434C7.27287 15.7434 7.03952 15.9768 7.03952 16.2647H6.42175ZM8.69975 24.1507C8.69975 24.7797 8.1898 25.2897 7.56075 25.2897C6.9317 25.2897 6.42175 24.7797 6.42175 24.1507H7.03952C7.03952 24.4386 7.27287 24.6719 7.56075 24.6719C7.84863 24.6719 8.08199 24.4386 8.08199 24.1507H8.69975ZM7.56075 25.2897C6.9317 25.2897 6.42175 24.7797 6.42175 24.1507V16.2647C6.42175 15.6356 6.9317 15.1256 7.56075 15.1256V15.7434C7.27287 15.7434 7.03952 15.9768 7.03952 16.2647V24.1507C7.03952 24.4386 7.27287 24.6719 7.56075 24.6719V25.2897ZM7.56075 15.1256C8.1898 15.1256 8.69975 15.6356 8.69975 16.2647V24.1507C8.69975 24.7797 8.1898 25.2897 7.56075 25.2897V24.6719C7.84863 24.6719 8.08199 24.4386 8.08199 24.1507V16.2647C8.08199 15.9768 7.84863 15.7434 7.56075 15.7434V15.1256Z" fill="#1B271D"/>
</g>
<path d="M10.9211 15.2028H10.9212C11.5076 15.2028 11.9829 15.6781 11.9829 16.2645V24.1506C11.9829 24.737 11.5076 25.2124 10.9212 25.2124H10.9211C10.3347 25.2124 9.85938 24.737 9.85938 24.1506V16.2645C9.85938 15.6781 10.3347 15.2028 10.9211 15.2028Z" stroke="#19C77F" stroke-width="0.46332"/>
<path d="M10.0898 16.2646C10.0898 15.8061 10.4615 15.4344 10.92 15.4344C11.3784 15.4344 11.7501 15.8061 11.7501 16.2646V24.1507C11.7501 24.6092 11.3784 24.9808 10.92 24.9808C10.4615 24.9808 10.0898 24.6092 10.0898 24.1507V16.2646Z" fill="black" fill-opacity="0.5"/>
<mask id="mask3_1_750" style="mask-type:luminance" maskUnits="userSpaceOnUse" x="10" y="15" width="2" height="10">
<path d="M10.0898 16.2646C10.0898 15.8061 10.4615 15.4344 10.92 15.4344C11.3784 15.4344 11.7501 15.8061 11.7501 16.2646V24.1507C11.7501 24.6092 11.3784 24.9808 10.92 24.9808C10.4615 24.9808 10.0898 24.6092 10.0898 24.1507V16.2646Z" fill="white"/>
</mask>
<g mask="url(#mask3_1_750)">
<path d="M9.78125 16.2647C9.78125 15.6356 10.2912 15.1256 10.9202 15.1256C11.5493 15.1256 12.0592 15.6356 12.0592 16.2647H11.4415C11.4415 15.9768 11.2081 15.7434 10.9202 15.7434C10.6324 15.7434 10.399 15.9768 10.399 16.2647H9.78125ZM12.0592 24.1507C12.0592 24.7797 11.5493 25.2897 10.9202 25.2897C10.2912 25.2897 9.78125 24.7797 9.78125 24.1507H10.399C10.399 24.4386 10.6324 24.6719 10.9202 24.6719C11.2081 24.6719 11.4415 24.4386 11.4415 24.1507H12.0592ZM10.9202 25.2897C10.2912 25.2897 9.78125 24.7797 9.78125 24.1507V16.2647C9.78125 15.6356 10.2912 15.1256 10.9202 15.1256V15.7434C10.6324 15.7434 10.399 15.9768 10.399 16.2647V24.1507C10.399 24.4386 10.6324 24.6719 10.9202 24.6719V25.2897ZM10.9202 15.1256C11.5493 15.1256 12.0592 15.6356 12.0592 16.2647V24.1507C12.0592 24.7797 11.5493 25.2897 10.9202 25.2897V24.6719C11.2081 24.6719 11.4415 24.4386 11.4415 24.1507V16.2647C11.4415 15.9768 11.2081 15.7434 10.9202 15.7434V15.1256Z" fill="#1B271D"/>
</g>
<path d="M14.2805 15.2028H14.2805C14.8669 15.2028 15.3423 15.6781 15.3423 16.2645V24.1506C15.3423 24.737 14.8669 25.2124 14.2805 25.2124H14.2805C13.6941 25.2124 13.2188 24.737 13.2188 24.1506V16.2645C13.2188 15.6781 13.6941 15.2028 14.2805 15.2028Z" stroke="#19C77F" stroke-width="0.46332"/>
<path d="M13.4492 16.2646C13.4492 15.8061 13.8209 15.4344 14.2793 15.4344C14.7378 15.4344 15.1095 15.8061 15.1095 16.2646V24.1507C15.1095 24.6092 14.7378 24.9808 14.2793 24.9808C13.8209 24.9808 13.4492 24.6092 13.4492 24.1507V16.2646Z" fill="black" fill-opacity="0.5"/>
<mask id="mask4_1_750" style="mask-type:luminance" maskUnits="userSpaceOnUse" x="13" y="15" width="3" height="10">
<path d="M13.4492 16.2646C13.4492 15.8061 13.8209 15.4344 14.2793 15.4344C14.7378 15.4344 15.1095 15.8061 15.1095 16.2646V24.1507C15.1095 24.6092 14.7378 24.9808 14.2793 24.9808C13.8209 24.9808 13.4492 24.6092 13.4492 24.1507V16.2646Z" fill="white"/>
</mask>
<g mask="url(#mask4_1_750)">
<path d="M13.1406 16.2647C13.1406 15.6356 13.6506 15.1256 14.2796 15.1256C14.9087 15.1256 15.4186 15.6356 15.4186 16.2647H14.8009C14.8009 15.9768 14.5675 15.7434 14.2796 15.7434C13.9917 15.7434 13.7584 15.9768 13.7584 16.2647H13.1406ZM15.4186 24.1507C15.4186 24.7797 14.9087 25.2897 14.2796 25.2897C13.6506 25.2897 13.1406 24.7797 13.1406 24.1507H13.7584C13.7584 24.4386 13.9917 24.6719 14.2796 24.6719C14.5675 24.6719 14.8009 24.4386 14.8009 24.1507H15.4186ZM14.2796 25.2897C13.6506 25.2897 13.1406 24.7797 13.1406 24.1507V16.2647C13.1406 15.6356 13.6506 15.1256 14.2796 15.1256V15.7434C13.9917 15.7434 13.7584 15.9768 13.7584 16.2647V24.1507C13.7584 24.4386 13.9917 24.6719 14.2796 24.6719V25.2897ZM14.2796 15.1256C14.9087 15.1256 15.4186 15.6356 15.4186 16.2647V24.1507C15.4186 24.7797 14.9087 25.2897 14.2796 25.2897V24.6719C14.5675 24.6719 14.8009 24.4386 14.8009 24.1507V16.2647C14.8009 15.9768 14.5675 15.7434 14.2796 15.7434V15.1256Z" fill="#1B271D"/>
</g>
<path d="M35.5393 20.2074C35.5393 18.3736 34.0527 16.887 32.2189 16.887C30.3851 16.887 28.8984 18.3736 28.8984 20.2074C28.8984 22.0413 30.3851 23.5279 32.2189 23.5279C34.0527 23.5279 35.5393 22.0413 35.5393 20.2074Z" fill="#303030" stroke="#19C77F" stroke-width="0.415058"/>
<path d="M30.3516 20.2075C30.3516 19.176 31.1879 18.3398 32.2194 18.3398C33.2509 18.3398 34.0872 19.176 34.0872 20.2075C34.0872 21.239 33.2509 22.0753 32.2194 22.0753C31.1879 22.0753 30.3516 21.239 30.3516 20.2075Z" fill="#83FF49"/>
<mask id="mask5_1_750" style="mask-type:luminance" maskUnits="userSpaceOnUse" x="30" y="18" width="5" height="5">
<path d="M30.3516 20.2075C30.3516 19.176 31.1879 18.3398 32.2194 18.3398C33.2509 18.3398 34.0872 19.176 34.0872 20.2075C34.0872 21.239 33.2509 22.0753 32.2194 22.0753C31.1879 22.0753 30.3516 21.239 30.3516 20.2075Z" fill="white"/>
</mask>
<g mask="url(#mask5_1_750)">
<path d="M30.043 20.2075C30.043 19.0054 31.0175 18.031 32.2196 18.031C33.4218 18.031 34.3963 19.0054 34.3963 20.2075H33.7786C33.7786 19.3467 33.0807 18.6488 32.2196 18.6488C31.3586 18.6488 30.6607 19.3467 30.6607 20.2075H30.043ZM34.3963 20.2075C34.3963 21.4097 33.4218 22.3842 32.2196 22.3842C31.0175 22.3842 30.043 21.4097 30.043 20.2075H30.6607C30.6607 21.0685 31.3586 21.7664 32.2196 21.7664C33.0807 21.7664 33.7786 21.0685 33.7786 20.2075H34.3963ZM32.2196 22.3842C31.0175 22.3842 30.043 21.4097 30.043 20.2075C30.043 19.0054 31.0175 18.031 32.2196 18.031V18.6488C31.3586 18.6488 30.6607 19.3467 30.6607 20.2075C30.6607 21.0685 31.3586 21.7664 32.2196 21.7664V22.3842ZM32.2196 18.031C33.4218 18.031 34.3963 19.0054 34.3963 20.2075C34.3963 21.4097 33.4218 22.3842 32.2196 22.3842V21.7664C33.0807 21.7664 33.7786 21.0685 33.7786 20.2075C33.7786 19.3467 33.0807 18.6488 32.2196 18.6488V18.031Z" fill="#00A05E"/>
</g>
<g filter="url(#filter1_d_1_750)">
<path d="M0.0507812 10.8882H39.4812" stroke="#00804B" stroke-width="0.830114" stroke-linecap="round"/>
</g>
<path fill-rule="evenodd" clip-rule="evenodd" d="M0.0742188 28.6298V31.3322C0.0742188 36.1087 3.94635 39.9808 8.72286 39.9808H31.2712C36.0477 39.9808 39.9198 36.1087 39.9198 31.3322V28.6298C39.9198 33.4063 36.0477 37.2784 31.2712 37.2784H8.72286C3.94635 37.2784 0.0742188 33.4063 0.0742188 28.6298Z" fill="black" fill-opacity="0.2"/>
<path fill-rule="evenodd" clip-rule="evenodd" d="M8.72287 0.135254C3.94635 0.135254 0.0742188 4.00739 0.0742188 8.7839V9.01183C0.541313 4.67602 4.21277 1.30015 8.67269 1.30015H31.2711C36.0477 1.30015 39.9198 5.17228 39.9198 9.94881V8.7839C39.9198 4.00739 36.0477 0.135254 31.2711 0.135254H8.72287Z" fill="white" fill-opacity="0.3"/>
</g>
</g>
</g>
</g>
<defs>
<filter id="filter0_d_1_750" x="-0.364273" y="28.9238" width="40.2606" height="1.2934" filterUnits="userSpaceOnUse" color-interpolation-filters="sRGB">
<feFlood flood-opacity="0" result="BackgroundImageFix"/>
<feColorMatrix in="SourceAlpha" type="matrix" values="0 0 0 0 0 0 0 0 0 0 0 0 0 0 0 0 0 0 127 0" result="hardAlpha"/>
<feOffset dy="0.46332"/>
<feComposite in2="hardAlpha" operator="out"/>
<feColorMatrix type="matrix" values="0 0 0 0 0.0980392 0 0 0 0 0.780392 0 0 0 0 0.498039 0 0 0 1 0"/>
<feBlend mode="normal" in2="BackgroundImageFix" result="effect1_dropShadow_1_750"/>
<feBlend mode="normal" in="SourceGraphic" in2="effect1_dropShadow_1_750" result="shape"/>
</filter>
<filter id="filter1_d_1_750" x="-0.364277" y="10.4731" width="40.2606" height="1.2934" filterUnits="userSpaceOnUse" color-interpolation-filters="sRGB">
<feFlood flood-opacity="0" result="BackgroundImageFix"/>
<feColorMatrix in="SourceAlpha" type="matrix" values="0 0 0 0 0 0 0 0 0 0 0 0 0 0 0 0 0 0 127 0" result="hardAlpha"/>
<feOffset dy="0.46332"/>
<feComposite in2="hardAlpha" operator="out"/>
<feColorMatrix type="matrix" values="0 0 0 0 0.0980392 0 0 0 0 0.780392 0 0 0 0 0.498039 0 0 0 1 0"/>
<feBlend mode="normal" in2="BackgroundImageFix" result="effect1_dropShadow_1_750"/>
<feBlend mode="normal" in="SourceGraphic" in2="effect1_dropShadow_1_750" result="shape"/>
</filter>
<clipPath id="clip0_1_750">
<rect width="40" height="40" fill="white"/>
</clipPath>
<clipPath id="clip1_1_750">
<rect width="40" height="40" fill="white"/>
</clipPath>
<clipPath id="clip2_1_750">
<rect width="40" height="39.8456" fill="white" transform="translate(0 0.0772705)"/>
</clipPath>
</defs>
</svg>
