<svg width="110" height="51" viewBox="0 0 110 51" fill="none" xmlns="http://www.w3.org/2000/svg">
<path fill-rule="evenodd" clip-rule="evenodd" d="M0.439327 0.156275C0.154847 0.293001 0.0130819 0.534318 0.0147899 0.879826C0.0163081 1.16486 0.0121322 8.80835 0.00567969 17.8652C-0.000772826 26.9221 -0.0019116 34.5313 0.00321246 34.7744C0.0212415 35.641 0.47994 35.7011 7.31885 35.7323C16.0001 35.7716 19.4057 35.5676 21.2665 34.8969C22.0488 34.6149 22.8929 34.2155 23.1425 34.0089C23.3921 33.8025 23.7128 33.6337 23.8553 33.6337C23.9978 33.6337 24.1144 33.5498 24.1144 33.4474C24.1144 33.345 24.3007 33.1991 24.5285 33.1231C25.0179 32.9598 27.5304 30.2706 27.5304 29.9101C27.5304 29.7734 27.638 29.5897 27.7695 29.5019C27.901 29.4141 28.1785 28.983 28.3863 28.5438C28.5939 28.1047 28.8118 27.7005 28.8702 27.6456C29.0912 27.4381 29.8078 24.8973 29.8078 24.3215C29.8078 23.9908 29.8685 23.6562 29.9429 23.578C30.1264 23.385 30.1363 20.46 29.9533 20.46C29.8732 20.46 29.8064 20.0782 29.8049 19.6117C29.8034 19.1453 29.6723 18.3592 29.5136 17.8652C29.3548 17.3712 29.1961 16.8772 29.161 16.7674C29.1257 16.6576 29.1006 16.5229 29.1052 16.468C29.1096 16.4131 28.8852 15.9882 28.6065 15.5239C28.3279 15.0594 28.0997 14.5852 28.0997 14.4696C28.0997 14.3543 27.9716 14.2081 27.8151 14.1451C27.6585 14.0818 27.5304 13.9469 27.5304 13.8451C27.5304 13.5634 25.2162 11.0788 24.954 11.0788C24.8276 11.0788 24.6752 10.9441 24.615 10.7794C24.555 10.6147 24.3751 10.48 24.2151 10.48C24.0553 10.48 23.9246 10.392 23.9246 10.2842C23.9246 10.1766 23.7111 10.0321 23.4501 9.96324C23.1892 9.89438 22.9757 9.76184 22.9757 9.66903C22.9757 9.57602 22.6775 9.44129 22.3132 9.36943C21.9488 9.29738 21.6989 9.15646 21.7579 9.05606C21.8169 8.95546 21.7949 8.89059 21.7087 8.91195C21.4222 8.9824 20.0394 8.66484 19.6545 8.44009C19.103 8.11794 8.94621 7.95606 8.40477 8.26065C7.99788 8.48959 7.99769 8.49638 7.98687 17.494C7.97567 26.8432 7.99238 27.0468 8.76535 27.0468C8.96139 27.0468 9.12176 27.1141 9.12176 27.1965C9.12176 27.279 9.97577 27.3462 11.0196 27.3462C12.0633 27.3462 12.9174 27.279 12.9174 27.1965C12.9174 27.1141 13.0403 27.0468 13.1908 27.0468C13.3413 27.0468 13.5159 26.9588 13.5791 26.8514C13.6423 26.7438 13.6886 23.9257 13.6822 20.5886C13.6757 17.2517 13.7235 14.3756 13.7886 14.1974C13.8881 13.9247 14.2481 13.8732 16.0578 13.8732C17.2409 13.8732 18.2555 13.9527 18.3126 14.0499C18.3695 14.1469 18.7946 14.286 19.2571 14.359C19.7196 14.4319 20.2007 14.6219 20.3265 14.7812C20.4522 14.9405 20.6606 15.0708 20.7898 15.0708C21.1343 15.0708 22.7859 16.6536 22.7859 16.984C22.7859 17.1393 22.8732 17.2664 22.9797 17.2664C23.0863 17.2664 23.2769 17.5135 23.4029 17.8153C23.5291 18.1171 23.6843 18.4091 23.7481 18.464C23.8119 18.5189 24.0058 19.0065 24.1791 19.5475C24.497 20.5405 24.6277 23.6534 24.3516 23.6538C24.2732 23.6538 24.1973 23.871 24.1829 24.1365C24.1504 24.7295 23.4746 26.1742 22.915 26.8472C22.3384 27.5407 20.7964 28.8432 20.5522 28.8432C20.4412 28.8432 20.3191 28.9418 20.281 29.0624C20.2427 29.183 19.8066 29.3297 19.3118 29.3884C18.817 29.447 18.3665 29.573 18.3105 29.6682C18.2545 29.7634 15.4475 29.8412 12.0725 29.8412C6.74078 29.8412 5.9215 29.8011 5.82471 29.5361C5.76341 29.3682 5.69927 24.0013 5.682 17.6099L5.65068 5.989L12.5577 6.00676C16.3565 6.01654 19.6783 6.06984 19.9392 6.12532C20.7109 6.2894 21.5387 6.53471 21.7421 6.65966C21.8465 6.72373 22.0336 6.79239 22.1577 6.81235C22.7502 6.90696 23.7348 7.3373 23.7348 7.50157C23.7348 7.60277 23.8919 7.6856 24.0838 7.6856C24.4522 7.6856 25.2923 8.29418 26.6286 9.52911C27.0725 9.93929 27.5424 10.276 27.6727 10.2776C27.8033 10.2792 27.91 10.399 27.91 10.5439C27.91 10.6886 28.1197 10.999 28.3761 11.2335C28.6325 11.468 29.0708 12.0231 29.3502 12.467C29.6296 12.9111 29.9323 13.2744 30.0228 13.2744C30.1133 13.2744 30.1873 13.3978 30.1873 13.5485C30.1873 13.9127 30.9121 15.6237 31.125 15.7622C31.2174 15.8221 31.3507 16.2301 31.4211 16.6686C31.4915 17.1071 31.6103 17.466 31.6851 17.466C31.76 17.466 31.8422 17.8413 31.868 18.3C31.8936 18.7586 31.9559 19.2039 32.0062 19.2894C32.1745 19.5762 32.0984 24.1419 31.91 25.0508C31.5389 26.8415 31.2489 27.947 31.1245 28.0448C31.0548 28.0997 30.9318 28.3692 30.8516 28.6436C30.7713 28.9181 30.653 29.1876 30.5887 29.2424C30.5246 29.2973 30.2602 29.7688 30.0015 30.2903C29.7427 30.8119 29.4709 31.2384 29.3975 31.2384C29.324 31.2384 29.209 31.4207 29.1418 31.6434C28.9116 32.4059 25.8526 35.2305 25.2568 35.2305C25.1608 35.2305 25.0139 35.3428 24.9304 35.48C24.7499 35.7766 23.0856 36.6277 22.6859 36.6277C22.5322 36.6277 22.4063 36.6989 22.4063 36.7861C22.4063 36.8734 21.9154 37.1171 21.3151 37.3279C20.3634 37.6622 19.5329 37.7199 14.8152 37.7784C9.40149 37.8458 8.237 37.9913 8.44937 38.5736C8.49947 38.7109 8.41501 38.8233 8.26186 38.8233C8.03375 38.8233 7.98308 39.2175 7.98308 40.9879C7.98308 42.8466 8.03318 43.2001 8.33701 43.4893C9.00428 44.1247 22.1014 43.6614 22.5961 42.9849C22.6483 42.9137 23.029 42.7989 23.4422 42.7298C23.8553 42.661 24.2396 42.5302 24.2962 42.4394C24.3527 42.3484 24.7194 42.2121 25.1107 42.1364C25.5022 42.0608 25.8224 41.9131 25.8224 41.8083C25.8224 41.7035 25.94 41.6177 26.0839 41.6177C26.2276 41.6177 26.4469 41.4887 26.5714 41.331C26.6957 41.1736 27.0478 40.9867 27.3537 40.9161C27.6596 40.8454 27.91 40.7021 27.91 40.5975C27.91 40.4931 28.0595 40.348 28.2421 40.2754C28.4246 40.2025 28.6716 40.0482 28.7904 39.9322C28.9093 39.8163 29.2509 39.546 29.5495 39.3314C30.2666 38.8165 33.6034 35.271 33.6034 35.0241C33.6034 34.9181 33.6888 34.8313 33.7931 34.8313C33.8975 34.8313 33.9831 34.7191 33.9831 34.5818C33.9833 34.4446 34.1943 34.0742 34.4522 33.759C34.71 33.4436 34.9719 33.0169 35.0341 32.8109C35.0964 32.6047 35.2267 32.4361 35.3241 32.4361C35.4214 32.4361 35.5012 32.2927 35.5012 32.1175C35.5012 31.9424 35.6247 31.5606 35.7756 31.2692C36.3681 30.1249 36.9406 28.4806 36.8571 28.163C36.8309 28.0632 36.8829 27.9285 36.9725 27.8636C37.0621 27.7985 37.2559 27.1616 37.4031 26.448C37.7163 24.9319 37.8595 18.464 37.58 18.464C37.4804 18.464 37.4166 18.3968 37.4382 18.3143C37.5384 17.9317 37.1813 15.8586 36.9268 15.3455C36.7702 15.0297 36.6417 14.6578 36.641 14.5191C36.6404 14.3804 36.5611 14.1109 36.4647 13.9203C36.3685 13.7297 35.9955 12.9451 35.6359 12.1766C34.8681 10.5351 34.3055 9.42253 34.1727 9.28261C34.1205 9.22752 33.6119 8.59877 33.0426 7.8852C31.9576 6.52532 31.2167 5.75107 30.3067 5.02593C30.007 4.7872 29.6252 4.43471 29.458 4.24249C29.2908 4.05028 29.0521 3.89319 28.9274 3.89319C28.8027 3.89319 28.6723 3.82233 28.6374 3.73571C28.5476 3.51216 26.7464 2.37783 26.1915 2.19559C25.9363 2.11156 25.559 1.92034 25.3531 1.77044C25.1473 1.62054 24.827 1.49799 24.6414 1.49799C24.456 1.49799 24.3041 1.41615 24.3041 1.31595C24.3041 1.21575 23.9411 1.07484 23.4976 1.00258C23.0541 0.930326 22.4122 0.780427 22.0716 0.669249C20.6651 0.210368 18.0754 0.0734413 9.6911 0.0139604C3.92824 -0.0269577 0.718114 0.0225427 0.439327 0.156275ZM40.3405 32.0369C40.276 32.1466 39.9137 32.2365 39.5353 32.2365C38.1951 32.2365 36.536 33.4119 35.8395 34.8548C35.0677 36.4538 34.6122 39.0229 35.1005 39.0229C35.1931 39.0229 35.3252 39.3372 35.3937 39.7215C35.4623 40.1057 35.5905 40.4201 35.679 40.4201C35.7672 40.4201 35.8959 40.6562 35.9648 40.9446C36.2071 41.9604 38.0357 43.4141 39.0707 43.4141C39.3915 43.4141 39.7067 43.5039 39.7712 43.6137C39.9149 43.8582 41.1946 43.8815 41.1946 43.6396C41.1946 43.5442 41.5895 43.4193 42.0721 43.362C42.5547 43.3047 43.003 43.1704 43.0684 43.0636C43.1337 42.9566 43.3795 42.8061 43.6142 42.7288C43.849 42.6518 44.0413 42.5051 44.0413 42.4027C44.0413 42.3003 44.1694 42.2165 44.3259 42.2165C44.4825 42.2165 44.6106 42.0927 44.6106 41.9414C44.6106 41.7903 44.7332 41.5596 44.8829 41.4288C45.5064 40.8847 45.9709 39.55 45.9945 38.2358C46.037 35.8456 45.8561 35.2544 44.6928 33.9812C44.117 33.3508 43.5285 32.8353 43.385 32.8353C43.2413 32.8353 43.092 32.7341 43.0527 32.6103C43.0134 32.4865 42.535 32.3402 41.9892 32.2852C41.4434 32.2301 40.9509 32.1067 40.8947 32.0111C40.7579 31.7784 40.485 31.7909 40.3405 32.0369Z" fill="black"/>
<path d="M65.7881 26.5625C65.8715 26.5625 65.9392 26.5677 65.9912 26.5781C66.0537 26.5781 66.184 26.5833 66.3819 26.5938V31.1562C66.1006 31.125 65.8506 31.1042 65.6319 31.0938C65.4131 31.0833 65.236 31.0781 65.1006 31.0781C63.309 31.0781 62.1058 31.6615 61.4912 32.8281C61.1475 33.4844 60.9756 34.4948 60.9756 35.8594V44H56.4912V26.9688H60.7412V29.9375C61.4287 28.8021 62.0277 28.026 62.5381 27.6094C63.3715 26.9115 64.4548 26.5625 65.7881 26.5625ZM72.945 24.9375H68.4294V20.8281H72.945V24.9375ZM68.4294 26.9688H72.945V44H68.4294V26.9688ZM87.1331 26.9688H91.9144L85.7737 44H81.0706L74.9612 26.9688H79.9612L83.5081 39.5312L87.1331 26.9688ZM100.524 30.1875C99.4931 30.1875 98.691 30.5104 98.1181 31.1562C97.5556 31.8021 97.2015 32.6771 97.0556 33.7812H103.978C103.905 32.6042 103.545 31.7135 102.899 31.1094C102.264 30.4948 101.472 30.1875 100.524 30.1875ZM100.524 26.5156C101.941 26.5156 103.217 26.7812 104.353 27.3125C105.488 27.8438 106.425 28.6823 107.165 29.8281C107.832 30.8385 108.264 32.0104 108.462 33.3438C108.576 34.125 108.623 35.25 108.603 36.7188H96.9463C97.0088 38.4271 97.5452 39.625 98.5556 40.3125C99.1702 40.7396 99.9098 40.9531 100.774 40.9531C101.691 40.9531 102.436 40.6927 103.009 40.1719C103.321 39.8906 103.597 39.5 103.837 39H108.384C108.269 40.0104 107.743 41.0365 106.806 42.0781C105.347 43.7344 103.306 44.5625 100.681 44.5625C98.514 44.5625 96.6025 43.8646 94.9463 42.4688C93.29 41.0729 92.4619 38.8021 92.4619 35.6562C92.4619 32.7083 93.2067 30.4479 94.6963 28.875C96.1963 27.3021 98.139 26.5156 100.524 26.5156Z" fill="black"/>
</svg>
