<svg width="256" height="265" viewBox="0 0 256 265" fill="none" xmlns="http://www.w3.org/2000/svg">
<g filter="url(#filter0_dddd_401_3336)">
<rect x="10.9593" y="9.56863" width="156.863" height="156.863" rx="36.0784" fill="#EF5A3C"/>
<rect x="10.9593" y="9.56863" width="156.863" height="156.863" rx="36.0784" stroke="white" stroke-width="3.13725"/>
<path fill-rule="evenodd" clip-rule="evenodd" d="M54.0046 53.7364C53.5565 53.9518 53.3331 54.332 53.3358 54.8764C53.3382 55.3254 53.3316 67.3673 53.3214 81.636C53.3113 95.9046 53.3095 107.892 53.3176 108.275C53.346 109.641 54.0686 109.735 64.843 109.785C78.5199 109.846 83.8852 109.525 86.8168 108.469C88.0492 108.024 89.3791 107.395 89.7723 107.069C90.1655 106.744 90.6708 106.478 90.8953 106.478C91.1198 106.478 91.3034 106.346 91.3034 106.185C91.3034 106.024 91.597 105.794 91.9558 105.674C92.7269 105.417 96.6852 101.18 96.6852 100.612C96.6852 100.397 96.8547 100.107 97.0619 99.969C97.2691 99.8306 97.7063 99.1514 98.0337 98.4596C98.3607 97.7677 98.704 97.131 98.7961 97.0445C99.1441 96.7175 100.273 92.7147 100.273 91.8075C100.273 91.2864 100.369 90.7594 100.486 90.6361C100.775 90.332 100.791 85.7239 100.502 85.7239C100.376 85.7239 100.271 85.1224 100.269 84.3875C100.266 83.6526 100.06 82.4142 99.8096 81.636C99.5594 80.8577 99.3094 80.0794 99.2541 79.9064C99.1985 79.7335 99.159 79.5212 99.1662 79.4347C99.1731 79.3483 98.8197 78.6788 98.3805 77.9473C97.9416 77.2156 97.5822 76.4684 97.5822 76.2864C97.5822 76.1046 97.3804 75.8744 97.1337 75.775C96.887 75.6754 96.6852 75.4628 96.6852 75.3024C96.6852 74.8587 93.0393 70.9443 92.6261 70.9443C92.427 70.9443 92.1869 70.7321 92.0922 70.4726C91.9977 70.2132 91.7142 70.0009 91.4622 70.0009C91.2104 70.0009 91.0044 69.8623 91.0044 69.6924C91.0044 69.523 90.6681 69.2953 90.257 69.1868C89.8459 69.0783 89.5095 68.8695 89.5095 68.7233C89.5095 68.5767 89.0398 68.3645 88.4657 68.2513C87.8917 68.1378 87.4979 67.9158 87.5909 67.7576C87.6839 67.5991 87.6492 67.4969 87.5134 67.5305C87.062 67.6415 84.8835 67.1412 84.2772 66.7872C83.4083 66.2796 67.4068 66.0246 66.5538 66.5045C65.9127 66.8651 65.9124 66.8758 65.8954 81.0511C65.8778 95.7804 65.9041 96.1011 67.1219 96.1011C67.4307 96.1011 67.6833 96.2071 67.6833 96.337C67.6833 96.4668 69.0288 96.5728 70.6732 96.5728C72.3177 96.5728 73.6631 96.4668 73.6631 96.337C73.6631 96.2071 73.8569 96.1011 74.094 96.1011C74.3311 96.1011 74.6061 95.9624 74.7057 95.7933C74.8053 95.6238 74.8782 91.1839 74.868 85.9264C74.8579 80.6693 74.9332 76.1382 75.0358 75.8574C75.1924 75.4279 75.7596 75.3468 78.6108 75.3468C80.4747 75.3468 82.0731 75.4719 82.163 75.625C82.2527 75.7779 82.9225 75.9971 83.6511 76.1121C84.3798 76.2269 85.1377 76.5263 85.3359 76.7772C85.5338 77.0282 85.8621 77.2335 86.0657 77.2335C86.6084 77.2335 89.2105 79.7272 89.2105 80.2476C89.2105 80.4923 89.348 80.6926 89.5158 80.6926C89.6838 80.6926 89.984 81.0819 90.1825 81.5573C90.3813 82.0328 90.6259 82.4929 90.7264 82.5793C90.8268 82.6658 91.1324 83.434 91.4054 84.2862C91.9062 85.8507 92.1122 90.755 91.6772 90.7556C91.5537 90.7556 91.4341 91.0977 91.4114 91.516C91.3602 92.4502 90.2955 94.7263 89.4138 95.7867C88.5055 96.8791 86.0762 98.9313 85.6914 98.9313C85.5165 98.9313 85.3243 99.0866 85.2642 99.2765C85.2038 99.4665 84.5167 99.6976 83.7372 99.79C82.9578 99.8825 82.248 100.081 82.1598 100.231C82.0716 100.381 77.6492 100.504 72.332 100.504C63.9322 100.504 62.6415 100.44 62.489 100.023C62.3925 99.7583 62.2914 91.3031 62.2642 81.2338L62.2149 62.9256L73.0965 62.9536C79.0814 62.969 84.3146 63.0529 84.7257 63.1404C85.9414 63.3988 87.2456 63.7853 87.5661 63.9822C87.7305 64.0831 88.0253 64.1913 88.2209 64.2227C89.1543 64.3718 90.7054 65.0498 90.7054 65.3086C90.7054 65.468 90.953 65.5985 91.2553 65.5985C91.8356 65.5985 93.1592 66.5573 95.2644 68.5028C95.9637 69.1491 96.704 69.6796 96.9095 69.6821C97.1152 69.6846 97.2832 69.8733 97.2832 70.1016C97.2832 70.3295 97.6136 70.8185 98.0175 71.188C98.4214 71.5575 99.1121 72.432 99.5522 73.1314C99.9923 73.8311 100.469 74.4034 100.612 74.4034C100.754 74.4034 100.871 74.5977 100.871 74.8351C100.871 75.409 102.013 78.1046 102.348 78.3228C102.494 78.4171 102.704 79.0599 102.815 79.7508C102.926 80.4416 103.113 81.007 103.231 81.007C103.349 81.007 103.478 81.5982 103.519 82.3208C103.559 83.0435 103.657 83.745 103.737 83.8796C104.002 84.3315 103.882 91.5245 103.585 92.9565C103 95.7775 102.544 97.5193 102.347 97.6734C102.238 97.7599 102.044 98.1844 101.918 98.6168C101.791 99.0492 101.605 99.4737 101.503 99.5602C101.402 99.6466 100.986 100.389 100.578 101.211C100.171 102.033 99.7424 102.705 99.6267 102.705C99.5109 102.705 99.3298 102.992 99.2239 103.343C98.8612 104.544 94.0418 108.994 93.1033 108.994C92.952 108.994 92.7206 109.171 92.5891 109.387C92.3047 109.854 89.6826 111.195 89.0529 111.195C88.8108 111.195 88.6125 111.307 88.6125 111.445C88.6125 111.582 87.839 111.966 86.8933 112.298C85.3939 112.825 84.0855 112.916 76.653 113.008C68.1241 113.114 66.2895 113.344 66.624 114.261C66.703 114.477 66.5699 114.654 66.3286 114.654C65.9692 114.654 65.8894 115.275 65.8894 118.065C65.8894 120.993 65.9683 121.55 66.447 122.005C67.4983 123.006 88.1321 122.276 88.9115 121.211C88.9937 121.098 89.5935 120.918 90.2444 120.809C90.8953 120.7 91.5008 120.494 91.5899 120.351C91.679 120.208 92.2566 119.993 92.8731 119.874C93.4899 119.755 93.9943 119.522 93.9943 119.357C93.9943 119.192 94.1797 119.057 94.4063 119.057C94.6327 119.057 94.9783 118.854 95.1744 118.605C95.3703 118.357 95.9249 118.063 96.4068 117.951C96.8888 117.84 97.2832 117.614 97.2832 117.449C97.2832 117.285 97.5188 117.056 97.8064 116.942C98.094 116.827 98.483 116.584 98.6702 116.401C98.8577 116.219 99.3958 115.793 99.8661 115.455C100.996 114.644 106.253 109.058 106.253 108.669C106.253 108.502 106.387 108.365 106.552 108.365C106.716 108.365 106.851 108.188 106.851 107.972C106.851 107.756 107.184 107.172 107.59 106.676C107.996 106.179 108.409 105.507 108.507 105.182C108.605 104.857 108.81 104.592 108.964 104.592C109.117 104.592 109.243 104.366 109.243 104.09C109.243 103.814 109.437 103.212 109.675 102.753C110.608 100.95 111.511 98.3599 111.379 97.8596C111.338 97.7023 111.42 97.4901 111.561 97.3879C111.702 97.2854 112.007 96.2819 112.239 95.1577C112.732 92.7691 112.958 82.5793 112.518 82.5793C112.361 82.5793 112.26 82.4734 112.294 82.3435C112.452 81.7407 111.89 78.4747 111.489 77.6662C111.242 77.1687 111.04 76.5829 111.038 76.3643C111.038 76.1458 110.913 75.7213 110.761 75.421C110.609 75.1207 110.022 73.8845 109.455 72.6738C108.245 70.0877 107.359 68.3349 107.15 68.1145C107.068 68.0277 106.266 67.0371 105.369 65.913C103.66 63.7705 102.493 62.5507 101.059 61.4083C100.587 61.0322 99.9854 60.4769 99.722 60.1741C99.4586 59.8712 99.0825 59.6238 98.8861 59.6238C98.6896 59.6238 98.4842 59.5121 98.4292 59.3756C98.2878 59.0235 95.4501 57.2364 94.5759 56.9493C94.1737 56.8169 93.5793 56.5156 93.2549 56.2795C92.9308 56.0433 92.4261 55.8502 92.1337 55.8502C91.8416 55.8502 91.6024 55.7213 91.6024 55.5634C91.6024 55.4056 91.0304 55.1836 90.3317 55.0697C89.633 54.9559 88.6218 54.7198 88.0851 54.5446C85.8693 53.8217 81.7893 53.6059 68.5803 53.5122C59.5012 53.4478 54.4439 53.5257 54.0046 53.7364ZM116.867 103.963C116.765 104.136 116.194 104.277 115.598 104.277C113.487 104.277 110.873 106.129 109.776 108.402C108.56 110.921 107.842 114.969 108.612 114.969C108.757 114.969 108.966 115.464 109.073 116.069C109.181 116.675 109.384 117.17 109.523 117.17C109.662 117.17 109.865 117.542 109.973 117.996C110.355 119.597 113.236 121.887 114.866 121.887C115.372 121.887 115.868 122.028 115.97 122.201C116.196 122.586 118.212 122.623 118.212 122.242C118.212 122.092 118.835 121.895 119.595 121.805C120.355 121.715 121.061 121.503 121.165 121.335C121.267 121.166 121.655 120.929 122.024 120.807C122.394 120.686 122.697 120.455 122.697 120.293C122.697 120.132 122.899 120 123.146 120C123.392 120 123.594 119.805 123.594 119.567C123.594 119.329 123.787 118.965 124.023 118.759C125.005 117.902 125.737 115.799 125.774 113.729C125.841 109.963 125.556 109.032 123.724 107.026C122.816 106.033 121.889 105.22 121.663 105.22C121.437 105.22 121.202 105.061 121.14 104.866C121.078 104.671 120.324 104.441 119.464 104.354C118.604 104.267 117.828 104.073 117.74 103.922C117.524 103.555 117.094 103.575 116.867 103.963Z" fill="white"/>
</g>
<defs>
<filter id="filter0_dddd_401_3336" x="0.372549" y="0.156863" width="255.293" height="264.314" filterUnits="userSpaceOnUse" color-interpolation-filters="sRGB">
<feFlood flood-opacity="0" result="BackgroundImageFix"/>
<feColorMatrix in="SourceAlpha" type="matrix" values="0 0 0 0 0 0 0 0 0 0 0 0 0 0 0 0 0 0 127 0" result="hardAlpha"/>
<feOffset dx="3.13725" dy="3.92157"/>
<feGaussianBlur stdDeviation="5.88235"/>
<feColorMatrix type="matrix" values="0 0 0 0 0 0 0 0 0 0 0 0 0 0 0 0 0 0 0.1 0"/>
<feBlend mode="normal" in2="BackgroundImageFix" result="effect1_dropShadow_401_3336"/>
<feColorMatrix in="SourceAlpha" type="matrix" values="0 0 0 0 0 0 0 0 0 0 0 0 0 0 0 0 0 0 127 0" result="hardAlpha"/>
<feOffset dx="13.3333" dy="15.6863"/>
<feGaussianBlur stdDeviation="10.1961"/>
<feColorMatrix type="matrix" values="0 0 0 0 0 0 0 0 0 0 0 0 0 0 0 0 0 0 0.09 0"/>
<feBlend mode="normal" in2="effect1_dropShadow_401_3336" result="effect2_dropShadow_401_3336"/>
<feColorMatrix in="SourceAlpha" type="matrix" values="0 0 0 0 0 0 0 0 0 0 0 0 0 0 0 0 0 0 127 0" result="hardAlpha"/>
<feOffset dx="29.8039" dy="35.2941"/>
<feGaussianBlur stdDeviation="14.1176"/>
<feColorMatrix type="matrix" values="0 0 0 0 0 0 0 0 0 0 0 0 0 0 0 0 0 0 0.05 0"/>
<feBlend mode="normal" in2="effect2_dropShadow_401_3336" result="effect3_dropShadow_401_3336"/>
<feColorMatrix in="SourceAlpha" type="matrix" values="0 0 0 0 0 0 0 0 0 0 0 0 0 0 0 0 0 0 127 0" result="hardAlpha"/>
<feOffset dx="53.3333" dy="63.5294"/>
<feGaussianBlur stdDeviation="16.4706"/>
<feColorMatrix type="matrix" values="0 0 0 0 0 0 0 0 0 0 0 0 0 0 0 0 0 0 0.01 0"/>
<feBlend mode="normal" in2="effect3_dropShadow_401_3336" result="effect4_dropShadow_401_3336"/>
<feBlend mode="normal" in="SourceGraphic" in2="effect4_dropShadow_401_3336" result="shape"/>
</filter>
</defs>
</svg>
