<svg width="37" height="36" viewBox="0 0 37 36" fill="none" xmlns="http://www.w3.org/2000/svg">
<rect x="0.625" width="36" height="36" rx="12" fill="#EF5A3C"/>
<path fill-rule="evenodd" clip-rule="evenodd" d="M8.82556 8.07134C8.69569 8.13376 8.63097 8.24393 8.63175 8.40166C8.63245 8.53178 8.63054 12.0212 8.62759 16.1559C8.62465 20.2905 8.62413 23.7643 8.62647 23.8753C8.6347 24.2709 8.8441 24.2983 11.9662 24.3125C15.9294 24.3305 17.4841 24.2374 18.3336 23.9312C18.6908 23.8025 19.0761 23.6201 19.1901 23.5258C19.304 23.4316 19.4504 23.3545 19.5155 23.3545C19.5805 23.3545 19.6337 23.3162 19.6337 23.2695C19.6337 23.2227 19.7188 23.1561 19.8228 23.1214C20.0462 23.0469 21.1932 21.8192 21.1932 21.6546C21.1932 21.5922 21.2424 21.5084 21.3024 21.4683C21.3624 21.4282 21.4891 21.2314 21.584 21.0309C21.6788 20.8304 21.7782 20.6459 21.8049 20.6208C21.9057 20.5261 22.2329 19.3662 22.2329 19.1033C22.2329 18.9523 22.2606 18.7996 22.2946 18.7639C22.3784 18.6757 22.3829 17.3404 22.2993 17.3404C22.2628 17.3404 22.2323 17.1661 22.2316 16.9532C22.2309 16.7402 22.171 16.3814 22.0986 16.1559C22.0261 15.9303 21.9537 15.7048 21.9376 15.6547C21.9215 15.6046 21.9101 15.5431 21.9122 15.518C21.9141 15.4929 21.8117 15.299 21.6845 15.087C21.5573 14.875 21.4531 14.6585 21.4531 14.6057C21.4531 14.553 21.3947 14.4863 21.3232 14.4575C21.2517 14.4286 21.1932 14.367 21.1932 14.3206C21.1932 14.192 20.1368 13.0577 20.017 13.0577C19.9593 13.0577 19.8897 12.9962 19.8623 12.921C19.8349 12.8459 19.7528 12.7844 19.6797 12.7844C19.6068 12.7844 19.5471 12.7442 19.5471 12.695C19.5471 12.6458 19.4496 12.5799 19.3305 12.5484C19.2114 12.517 19.1139 12.4565 19.1139 12.4141C19.1139 12.3717 18.9778 12.3102 18.8114 12.2773C18.6451 12.2445 18.531 12.1801 18.5579 12.1343C18.5849 12.0884 18.5748 12.0587 18.5355 12.0685C18.4047 12.1007 17.7734 11.9557 17.5977 11.8531C17.346 11.706 12.7091 11.6321 12.462 11.7712C12.2762 11.8757 12.2761 11.8788 12.2712 15.9864C12.2661 20.2545 12.2737 20.3475 12.6266 20.3475C12.7161 20.3475 12.7893 20.3782 12.7893 20.4158C12.7893 20.4534 13.1792 20.4842 13.6557 20.4842C14.1322 20.4842 14.5221 20.4534 14.5221 20.4158C14.5221 20.3782 14.5782 20.3475 14.6469 20.3475C14.7156 20.3475 14.7953 20.3073 14.8242 20.2583C14.853 20.2091 14.8742 18.9226 14.8712 17.3991C14.8683 15.8758 14.8901 14.5628 14.9198 14.4814C14.9652 14.3569 15.1296 14.3334 15.9557 14.3334C16.4959 14.3334 16.959 14.3697 16.9851 14.4141C17.0111 14.4584 17.2052 14.5219 17.4163 14.5552C17.6274 14.5885 17.8471 14.6752 17.9045 14.7479C17.9619 14.8207 18.057 14.8802 18.116 14.8802C18.2732 14.8802 19.0273 15.6028 19.0273 15.7536C19.0273 15.8245 19.0671 15.8825 19.1157 15.8825C19.1644 15.8825 19.2514 15.9953 19.3089 16.1331C19.3665 16.2709 19.4374 16.4042 19.4665 16.4292C19.4956 16.4543 19.5842 16.6769 19.6633 16.9238C19.8084 17.3772 19.8681 18.7983 19.742 18.7985C19.7062 18.7985 19.6716 18.8976 19.665 19.0188C19.6502 19.2895 19.3417 19.9491 19.0862 20.2563C18.823 20.5729 18.119 21.1676 18.0075 21.1676C17.9568 21.1676 17.9011 21.2126 17.8837 21.2676C17.8662 21.3227 17.6671 21.3896 17.4413 21.4164C17.2154 21.4432 17.0097 21.5007 16.9841 21.5442C16.9586 21.5876 15.6771 21.6232 14.1363 21.6232C11.7023 21.6232 11.3283 21.6049 11.2841 21.4839C11.2561 21.4072 11.2268 18.9571 11.219 16.0393L11.2047 10.7341L14.3579 10.7422C16.0921 10.7467 17.6086 10.771 17.7277 10.7963C18.08 10.8712 18.4579 10.9832 18.5507 11.0403C18.5984 11.0695 18.6838 11.1009 18.7405 11.11C19.011 11.1532 19.4605 11.3496 19.4605 11.4246C19.4605 11.4708 19.5322 11.5086 19.6198 11.5086C19.7879 11.5086 20.1715 11.7865 20.7815 12.3502C20.9842 12.5375 21.1987 12.6912 21.2582 12.692C21.3178 12.6927 21.3665 12.7474 21.3665 12.8135C21.3665 12.8796 21.4622 13.0213 21.5793 13.1283C21.6963 13.2354 21.8965 13.4888 22.024 13.6915C22.1515 13.8942 22.2897 14.0601 22.3311 14.0601C22.3724 14.0601 22.4062 14.1164 22.4062 14.1852C22.4062 14.3515 22.737 15.1326 22.8343 15.1958C22.8764 15.2231 22.9373 15.4094 22.9694 15.6096C23.0015 15.8098 23.0558 15.9736 23.0899 15.9736C23.1241 15.9736 23.1617 16.1449 23.1734 16.3543C23.1851 16.5637 23.2136 16.767 23.2365 16.806C23.3134 16.937 23.2786 19.0213 23.1926 19.4363C23.0232 20.2537 22.8908 20.7584 22.834 20.8031C22.8022 20.8281 22.7461 20.9512 22.7094 21.0764C22.6728 21.2017 22.6188 21.3248 22.5894 21.3498C22.5601 21.3749 22.4394 21.5901 22.3213 21.8282C22.2032 22.0663 22.0791 22.261 22.0456 22.261C22.0121 22.261 21.9595 22.3442 21.9289 22.4459C21.8238 22.794 20.4273 24.0835 20.1553 24.0835C20.1115 24.0835 20.0444 24.1348 20.0063 24.1974C19.9239 24.3328 19.1641 24.7213 18.9816 24.7213C18.9114 24.7213 18.854 24.7539 18.854 24.7937C18.854 24.8335 18.6299 24.9448 18.3558 25.041C17.9213 25.1936 17.5422 25.2199 15.3884 25.2466C12.917 25.2774 12.3854 25.3439 12.4823 25.6097C12.5052 25.6724 12.4666 25.7237 12.3967 25.7237C12.2926 25.7237 12.2694 25.9036 12.2694 26.7119C12.2694 27.5604 12.2923 27.7218 12.431 27.8538C12.7357 28.1439 18.7148 27.9324 18.9406 27.6236C18.9644 27.591 19.1382 27.5386 19.3269 27.5071C19.5155 27.4757 19.6909 27.416 19.7167 27.3745C19.7426 27.333 19.9099 27.2707 20.0886 27.2362C20.2673 27.2017 20.4135 27.1342 20.4135 27.0864C20.4135 27.0386 20.4672 26.9994 20.5329 26.9994C20.5985 26.9994 20.6986 26.9405 20.7554 26.8685C20.8122 26.7966 20.9729 26.7113 21.1126 26.6791C21.2522 26.6468 21.3665 26.5814 21.3665 26.5336C21.3665 26.486 21.4348 26.4197 21.5181 26.3866C21.6015 26.3533 21.7142 26.2829 21.7684 26.2299C21.8227 26.177 21.9787 26.0536 22.115 25.9557C22.4424 25.7206 23.9657 24.102 23.9657 23.9892C23.9657 23.9409 24.0047 23.9012 24.0523 23.9012C24.1 23.9012 24.139 23.85 24.139 23.7873C24.1391 23.7247 24.2355 23.5556 24.3532 23.4117C24.4709 23.2677 24.5904 23.0729 24.6188 22.9789C24.6472 22.8848 24.7068 22.8078 24.7512 22.8078C24.7957 22.8078 24.8321 22.7423 24.8321 22.6623C24.8321 22.5824 24.8885 22.4081 24.9573 22.2751C25.2278 21.7527 25.4892 21.002 25.4511 20.857C25.4391 20.8115 25.4629 20.75 25.5038 20.7203C25.5447 20.6906 25.6331 20.3999 25.7003 20.0741C25.8433 19.3819 25.9087 16.4292 25.7811 16.4292C25.7356 16.4292 25.7065 16.3985 25.7164 16.3609C25.7621 16.1862 25.5991 15.2398 25.4829 15.0055C25.4114 14.8614 25.3527 14.6916 25.3524 14.6283C25.3521 14.565 25.3159 14.4419 25.2719 14.3549C25.228 14.2679 25.0577 13.9097 24.8936 13.5589C24.543 12.8095 24.2862 12.3016 24.2256 12.2377C24.2018 12.2126 23.9696 11.9255 23.7096 11.5998C23.2143 10.979 22.8761 10.6255 22.4607 10.2944C22.3239 10.1855 22.1495 10.0245 22.0732 9.93679C21.9969 9.84904 21.8879 9.77733 21.831 9.77733C21.7741 9.77733 21.7145 9.74498 21.6986 9.70543C21.6576 9.60338 20.8353 9.08553 20.582 9.00234C20.4655 8.96397 20.2932 8.87668 20.1992 8.80825C20.1053 8.73981 19.9591 8.68386 19.8743 8.68386C19.7897 8.68386 19.7204 8.6465 19.7204 8.60076C19.7204 8.55502 19.5546 8.49069 19.3522 8.4577C19.1497 8.42471 18.8567 8.35628 18.7012 8.30553C18.0591 8.09604 16.8768 8.03353 13.0492 8.00637C10.4183 7.98769 8.95283 8.01029 8.82556 8.07134ZM27.0413 22.6255C27.0119 22.6756 26.8465 22.7166 26.6737 22.7166C26.0619 22.7166 25.3045 23.2533 24.9865 23.912C24.6342 24.642 24.4262 25.8148 24.6492 25.8148C24.6914 25.8148 24.7517 25.9583 24.783 26.1337C24.8143 26.3091 24.8729 26.4526 24.9132 26.4526C24.9535 26.4526 25.0123 26.5604 25.0437 26.6921C25.1543 27.1558 25.9891 27.8195 26.4616 27.8195C26.6081 27.8195 26.752 27.8605 26.7814 27.9106C26.847 28.0222 27.4312 28.0329 27.4312 27.9224C27.4312 27.8789 27.6115 27.8218 27.8318 27.7957C28.0522 27.7695 28.2568 27.7082 28.2867 27.6595C28.3165 27.6106 28.4287 27.5419 28.5359 27.5066C28.643 27.4715 28.7308 27.4045 28.7308 27.3578C28.7308 27.311 28.7893 27.2727 28.8607 27.2727C28.9322 27.2727 28.9907 27.2162 28.9907 27.1472C28.9907 27.0782 29.0467 26.9729 29.115 26.9132C29.3996 26.6648 29.6117 26.0554 29.6225 25.4555C29.6419 24.3643 29.5593 24.0944 29.0282 23.5131C28.7654 23.2254 28.4967 22.99 28.4312 22.99C28.3656 22.99 28.2974 22.9438 28.2795 22.8873C28.2616 22.8308 28.0431 22.764 27.794 22.7389C27.5448 22.7137 27.32 22.6574 27.2943 22.6138C27.2319 22.5075 27.1073 22.5133 27.0413 22.6255Z" fill="#0A0000"/>
</svg>
