<svg width="12" height="16" viewBox="0 0 12 16" fill="none" xmlns="http://www.w3.org/2000/svg">
<path d="M5.68437 8.00313C5.52812 7.50313 5.53125 6.5375 5.62187 6.5375C5.88437 6.5375 5.85938 7.69063 5.68437 8.00313ZM5.63125 9.47812C5.39062 10.1094 5.09063 10.8313 4.74375 11.4375C5.31563 11.2188 5.9625 10.9 6.70937 10.7531C6.3125 10.4531 5.93125 10.0219 5.63125 9.47812ZM2.69062 13.3781C2.69062 13.4031 3.10313 13.2094 3.78125 12.1219C3.57188 12.3187 2.87188 12.8875 2.69062 13.3781ZM7.75 5H12V15.25C12 15.6656 11.6656 16 11.25 16H0.75C0.334375 16 0 15.6656 0 15.25V0.75C0 0.334375 0.334375 0 0.75 0H7V4.25C7 4.6625 7.3375 5 7.75 5ZM7.5 10.3687C6.875 9.9875 6.45937 9.4625 6.16563 8.6875C6.30625 8.10938 6.52812 7.23125 6.35938 6.68125C6.2125 5.7625 5.03437 5.85313 4.86562 6.46875C4.70937 7.04063 4.85313 7.84688 5.11875 8.875C4.75625 9.7375 4.22188 10.8937 3.84375 11.5562C3.84063 11.5562 3.84063 11.5594 3.8375 11.5594C2.99063 11.9937 1.5375 12.95 2.13438 13.6844C2.30938 13.9 2.63438 13.9969 2.80625 13.9969C3.36563 13.9969 3.92187 13.4344 4.71562 12.0656C5.52187 11.8 6.40625 11.4688 7.18437 11.3406C7.8625 11.7094 8.65625 11.95 9.18437 11.95C10.0969 11.95 10.1594 10.95 9.8 10.5938C9.36563 10.1687 8.10312 10.2906 7.5 10.3687ZM11.7812 3.28125L8.71875 0.21875C8.57812 0.078125 8.3875 0 8.1875 0H8V4H12V3.80938C12 3.6125 11.9219 3.42188 11.7812 3.28125ZM9.46562 11.2594C9.59375 11.175 9.3875 10.8875 8.12813 10.9781C9.2875 11.4719 9.46562 11.2594 9.46562 11.2594Z" fill="#E54335"/>
</svg>
