<svg width="16" height="16" viewBox="0 0 12 12" fill="none" xmlns="http://www.w3.org/2000/svg">
<path d="M10.712 1.28773C10.3681 0.943894 9.90175 0.750732 9.41546 0.750732C8.92916 0.750732 8.46278 0.943894 8.11889 1.28773L1.63402 7.77373C1.4449 7.96272 1.31442 8.20233 1.25827 8.46373L0.758393 10.7962C0.74521 10.8575 0.747588 10.9211 0.765308 10.9812C0.783029 11.0413 0.815528 11.096 0.859835 11.1403C0.904142 11.1846 0.958846 11.2171 1.01895 11.2348C1.07905 11.2525 1.14263 11.2549 1.20389 11.2417L3.53639 10.7419C3.79779 10.6857 4.0374 10.5552 4.22639 10.3661L10.712 3.88048C11.0557 3.53661 11.2488 3.07031 11.2488 2.58411C11.2488 2.0979 11.0557 1.6316 10.712 1.28773ZM8.64952 1.81798C8.85457 1.62407 9.12717 1.51779 9.40935 1.52175C9.69154 1.5257 9.96105 1.63958 10.1606 1.83916C10.3601 2.03874 10.4739 2.30828 10.4778 2.59047C10.4817 2.87266 10.3754 3.14523 10.1814 3.35023L9.84389 3.68773L8.31164 2.15586L8.64952 1.81798ZM7.78102 2.68611L9.31327 4.21836L3.69652 9.83623C3.6096 9.92311 3.49943 9.98301 3.37927 10.0087L1.61264 10.3875L1.99139 8.62123C2.01711 8.50106 2.07702 8.39089 2.16389 8.30398L7.78102 2.68611Z" fill="#202124"/>
</svg>
