<svg width="8" height="10" viewBox="0 0 2 10" fill="none" xmlns="http://www.w3.org/2000/svg">
<path d="M1 2.5C0.734784 2.5 0.48043 2.39464 0.292893 2.20711C0.105357 2.01957 0 1.76522 0 1.5C0 1.23478 0.105357 0.98043 0.292893 0.792893C0.48043 0.605357 0.734784 0.5 1 0.5C1.26522 0.5 1.51957 0.605357 1.70711 0.792893C1.89464 0.98043 2 1.23478 2 1.5C2 1.76522 1.89464 2.01957 1.70711 2.20711C1.51957 2.39464 1.26522 2.5 1 2.5ZM1 6C0.734784 6 0.48043 5.89464 0.292893 5.70711C0.105357 5.51957 0 5.26522 0 5C0 4.73478 0.105357 4.48043 0.292893 4.29289C0.48043 4.10536 0.734784 4 1 4C1.26522 4 1.51957 4.10536 1.70711 4.29289C1.89464 4.48043 2 4.73478 2 5C2 5.26522 1.89464 5.51957 1.70711 5.70711C1.51957 5.89464 1.26522 6 1 6ZM1 9.5C0.734784 9.5 0.48043 9.39464 0.292893 9.20711C0.105357 9.01957 0 8.76522 0 8.5C0 8.23478 0.105357 7.98043 0.292893 7.79289C0.48043 7.60536 0.734784 7.5 1 7.5C1.26522 7.5 1.51957 7.60536 1.70711 7.79289C1.89464 7.98043 2 8.23478 2 8.5C2 8.76522 1.89464 9.01957 1.70711 9.20711C1.51957 9.39464 1.26522 9.5 1 9.5Z" fill="#202124"/>
</svg>
