<svg width="15" height="15" viewBox="0 0 15 15" fill="none" xmlns="http://www.w3.org/2000/svg">
<path d="M7.5 0C6.01664 0 4.5666 0.439867 3.33323 1.26398C2.09986 2.08809 1.13856 3.25943 0.570907 4.62987C0.00324965 6.00032 -0.145275 7.50832 0.144114 8.96318C0.433503 10.418 1.14781 11.7544 2.1967 12.8033C3.2456 13.8522 4.58197 14.5665 6.03683 14.8559C7.49168 15.1453 8.99968 14.9968 10.3701 14.4291C11.7406 13.8614 12.9119 12.9001 13.736 11.6668C14.5601 10.4334 15 8.98336 15 7.5C14.9979 5.51154 14.207 3.60513 12.8009 2.19907C11.3949 0.793018 9.48847 0.00215068 7.5 0V0ZM13.75 7.5C13.7507 8.72482 13.3893 9.92252 12.7113 10.9425L11.9663 10.1969C11.9078 10.1383 11.875 10.059 11.875 9.97625V9.375C11.875 8.87772 11.6775 8.40081 11.3258 8.04918C10.9742 7.69754 10.4973 7.5 10 7.5H8.125C7.95924 7.5 7.80027 7.43415 7.68306 7.31694C7.56585 7.19973 7.5 7.04076 7.5 6.875V6.5625C7.5 6.47962 7.53293 6.40013 7.59153 6.34153C7.65014 6.28292 7.72962 6.25 7.8125 6.25C8.2269 6.25 8.62433 6.08538 8.91736 5.79236C9.21038 5.49933 9.375 5.1019 9.375 4.6875V4.0625C9.375 3.97962 9.40793 3.90013 9.46653 3.84153C9.52514 3.78292 9.60462 3.75 9.6875 3.75H10.5494C10.9634 3.74882 11.3602 3.58443 11.6538 3.2925L11.8894 3.05688C12.4789 3.63692 12.947 4.32853 13.2664 5.09136C13.5859 5.85419 13.7503 6.67298 13.75 7.5ZM1.28063 8.10188L3.25438 10.0756C3.42807 10.2504 3.63474 10.389 3.86241 10.4833C4.09008 10.5776 4.3342 10.6258 4.58063 10.625H6.25C6.41576 10.625 6.57474 10.6908 6.69195 10.8081C6.80916 10.9253 6.875 11.0842 6.875 11.25V13.7181C5.43762 13.5714 4.09525 12.932 3.07558 11.9083C2.05592 10.8847 1.42174 9.53982 1.28063 8.10188ZM8.125 13.7181V11.25C8.125 10.7527 7.92746 10.2758 7.57583 9.92418C7.2242 9.57255 6.74728 9.375 6.25 9.375H4.58063C4.49845 9.37507 4.41707 9.35892 4.34114 9.3275C4.26521 9.29608 4.19623 9.24999 4.13813 9.19188L1.35188 6.40563C1.53074 5.38888 1.95921 4.43243 2.59886 3.62211C3.23851 2.81179 4.06932 2.17294 5.01675 1.76288C5.96418 1.35282 6.99859 1.18438 8.02717 1.27268C9.05575 1.36097 10.0463 1.70323 10.91 2.26875L10.77 2.40875C10.7112 2.46677 10.632 2.49951 10.5494 2.5H9.6875C9.2731 2.5 8.87568 2.66462 8.58265 2.95765C8.28962 3.25067 8.125 3.6481 8.125 4.0625V4.6875C8.125 4.77038 8.09208 4.84987 8.03347 4.90847C7.97487 4.96708 7.89538 5 7.8125 5C7.3981 5 7.00067 5.16462 6.70765 5.45765C6.41462 5.75067 6.25 6.1481 6.25 6.5625V6.875C6.25 7.37228 6.44755 7.8492 6.79918 8.20083C7.15081 8.55246 7.62772 8.75 8.125 8.75H10C10.1658 8.75 10.3247 8.81585 10.4419 8.93306C10.5592 9.05027 10.625 9.20924 10.625 9.375V9.97625C10.6262 10.3902 10.7906 10.7871 11.0825 11.0806L11.9181 11.9163C10.9003 12.9376 9.55976 13.5744 8.125 13.7181Z" fill="white"/>
</svg>
